<svg xmlns="http://www.w3.org/2000/svg" viewBox="0 0 244.97 52.96"><defs><style>.a{fill:#f47932;}.b{fill:#231f20;}.c{fill:none;stroke:#231f20;stroke-width:0.5px;}.d{fill:#808285;}</style></defs><title>bpcl</title><path class="a" d="M0,30.42v-22H10.53c4.14,0,7.61,1.89,7.61,5.75,0,2.71-2.28,4.35-4.75,4.81v.06c2.92.4,5.29,2.25,5.29,5.39,0,6.39-8.15,6-8.37,6Zm9.65-4.26a2.38,2.38,0,1,0,.43-4.75h-4v4.75Zm-3.56-9,3.1,0c1.64,0,2.71-.64,2.71-2.31A2.26,2.26,0,0,0,9.4,12.71H6.09Z"/><path class="a" d="M35,22.2H30.52V17.94H41.08V29.69c-4.93.73-5.87,1.19-11.17,1.19-6.85-.21-11-4.56-11-11.44S23.07,8.2,29.92,8c5.32-.15,10.92.64,11,7H34.85c-.3-2.13-2-2.77-4-2.77-4.11,0-5.57,3.62-5.57,7.18,0,4.32,2.16,7.18,6.54,7.18A16.45,16.45,0,0,0,35,26.25Z"/><path class="b" d="M49.92,31a6.35,6.35,0,0,1-6.53-6.17h2.13c.06,3.37,2.55,4.34,5.5,4.34,2.46,0,5.29-1.43,5.29-4.22,0-2.19-1.58-3.22-3.43-3.83-3.55-1.19-9-2.31-9-7,0-3.83,3.52-5.92,7-5.92,2.89,0,6.65,1,7.14,5.23H55.9c-.06-2.7-2.52-3.4-4.77-3.4S46,11.11,46,13.78c0,6.23,12.4,3.4,12.4,11C58.42,29.52,54.32,31,49.92,31Z"/><path class="b" d="M62.69,8.58V22.77c.15,4,2.43,6.38,6,6.38s5.89-2.4,6-6.38V8.58h2V22.8c-.06,4.71-2.7,8.17-8,8.17s-8-3.46-8-8.17V8.58Z"/><path class="b" d="M80.32,28.6a1.37,1.37,0,0,1,.41,1,1.39,1.39,0,0,1-.41,1,1.42,1.42,0,0,1-2.42-1,1.37,1.37,0,0,1,.41-1,1.39,1.39,0,0,1,2,0Zm.21-.22a1.66,1.66,0,0,0-1.21-.5,1.68,1.68,0,0,0-1.18.46,1.64,1.64,0,0,0-.54,1.25,1.72,1.72,0,1,0,2.93-1.21Zm-1,1.08a.46.46,0,0,1-.27.07h-.19V29h.12a.83.83,0,0,1,.29,0,.22.22,0,0,1,.15.22A.26.26,0,0,1,79.52,29.47Zm-.46.41h.21l.17,0a.22.22,0,0,1,.14.14.91.91,0,0,1,0,.23,1.3,1.3,0,0,0,0,.26h.48l0-.05a.26.26,0,0,1,0-.06.54.54,0,0,1,0-.06v-.17a.51.51,0,0,0-.17-.43.66.66,0,0,0-.27-.11.63.63,0,0,0,.33-.13.42.42,0,0,0,.13-.35.48.48,0,0,0-.25-.46.9.9,0,0,0-.37-.1h-.92v1.9h.5Z"/><line class="c" x1="88.94" x2="88.94" y2="39.28"/><path class="b" d="M0,47H2.69c1.09,0,1.9.48,1.9,1.48a1.33,1.33,0,0,1-1,1.37v0c.78.16,1.18.58,1.18,1.29,0,1.4-1.23,1.69-2.28,1.69H0Zm1.56,2.31H2c.51,0,1-.13,1-.62s-.5-.59-1-.59H1.56Zm0,2.43H2c.57,0,1.16-.08,1.16-.68s-.61-.7-1.15-.7H1.56Z"/><path class="b" d="M11.53,46.91a2.7,2.7,0,0,1,2.93,3,2.72,2.72,0,0,1-2.93,3,2.72,2.72,0,0,1-2.93-3A2.7,2.7,0,0,1,11.53,46.91Zm0,4.9c.95,0,1.32-.91,1.32-1.87s-.38-1.87-1.32-1.87-1.32.86-1.32,1.87S10.58,51.81,11.53,51.81Z"/><path class="b" d="M18,47h1.59l.75,4.49h0L21.2,47h2L24,51.5h0L24.77,47h1.52L25,52.86H23l-.83-4.49h0l-.77,4.49h-2Z"/><path class="b" d="M30.09,47h1.56v4.69h2.41v1.16h-4Z"/><path class="b" d="M38,47h1.56v5.85H38Z"/><path class="b" d="M43.94,47h2l2,4h0l0-4h1.43v5.85H47.38l-2-4h0l.05,4H43.94Z"/><path class="b" d="M59,52.7a8.61,8.61,0,0,1-2.26.27c-1.56,0-3.36-.79-3.36-3s1.55-3.05,3.7-3.05a5.63,5.63,0,0,1,1.77.26l-.13,1.28a3,3,0,0,0-1.42-.38c-1.27,0-2.3.53-2.3,1.89a1.79,1.79,0,0,0,2,1.85,1.37,1.37,0,0,0,.55-.1V50.55H56.6V49.44H59Z"/><path class="b" d="M74.48,52.7a8.61,8.61,0,0,1-2.26.27c-1.56,0-3.36-.79-3.36-3s1.55-3.05,3.69-3.05a5.63,5.63,0,0,1,1.77.26l-.13,1.28a3,3,0,0,0-1.43-.38c-1.27,0-2.3.53-2.3,1.89a1.79,1.79,0,0,0,2,1.85,1.37,1.37,0,0,0,.55-.1V50.55h-.91V49.44h2.42Z"/><path class="b" d="M78.74,47h2.78c1,0,1.89.47,1.89,1.47A1.37,1.37,0,0,1,82.28,50v0c.5.13.54.58.83,1.29l.57,1.59H82.06l-.34-1.05c-.32-1-.52-1.26-1.1-1.26H80.3v2.31H78.74Zm1.56,2.43h.41c.5,0,1.14,0,1.14-.68s-.54-.65-1.14-.65H80.3Z"/><path class="b" d="M87.51,47h4.12v1.11H89.07v1.21h2.42v1.11H89.07v1.32h2.66v1.11H87.51Z"/><path class="b" d="M95.82,47h4.12v1.11H97.38v1.21H99.8v1.11H97.38v1.32H100v1.11H95.82Z"/><path class="b" d="M104.19,47h2l2,4h0l0-4h1.42v5.85h-1.93l-2-4h0l.05,4h-1.43Z"/><path class="b" d="M119.64,51.42a3.44,3.44,0,0,0,1.61.39c.49,0,1-.1,1-.57,0-1.09-2.77-.4-2.77-2.53,0-1.41,1.38-1.79,2.55-1.79a5,5,0,0,1,1.51.22l-.1,1.21a3.09,3.09,0,0,0-1.3-.27c-.39,0-1,0-1,.54,0,.95,2.77.31,2.77,2.42,0,1.52-1.28,1.93-2.57,1.93a6.06,6.06,0,0,1-1.74-.25Z"/><path class="b" d="M128.93,48.17h-1.44V47h4.44v1.16h-1.44v4.69h-1.56Z"/><path class="b" d="M136.89,47h1.91l2.26,5.85h-1.71l-.44-1.25h-2.2l-.46,1.25h-1.58Zm1,1.21h0l-.75,2.29h1.46Z"/><path class="b" d="M145.29,48.17h-1.44V47h4.44v1.16h-1.44v4.69h-1.56Z"/><path class="b" d="M152.09,47h4.12v1.11h-2.56v1.21h2.42v1.11h-2.42v1.32h2.65v1.11h-4.21Z"/><path class="b" d="M171.23,50.64c0,1.6-1,2.32-2.56,2.32s-2.57-.72-2.57-2.32V47h1.56v3.37c0,.77.21,1.43,1,1.43s1-.66,1-1.43V47h1.56Z"/><path class="b" d="M175.44,47h2l2,4h0l0-4h1.43v5.85h-1.94l-2-4h0l.05,4h-1.44Z"/><path class="b" d="M185.2,47h1.56v5.85H185.2Z"/><path class="b" d="M190.65,47h1.66l1.3,4.59h0l1.3-4.59h1.6l-2,5.85h-1.93Z"/><path class="b" d="M200.3,47h4.13v1.11h-2.57v1.21h2.42v1.11h-2.42v1.32h2.66v1.11H200.3Z"/><path class="b" d="M208.61,47h2.78c1,0,1.88.47,1.88,1.47A1.37,1.37,0,0,1,212.15,50v0c.5.13.54.58.83,1.29l.57,1.59h-1.63l-.34-1.05c-.32-1-.52-1.26-1.1-1.26h-.33v2.31h-1.56Zm1.56,2.43h.41c.5,0,1.14,0,1.14-.68s-.54-.65-1.14-.65h-.41Z"/><path class="b" d="M217.44,51.42a3.45,3.45,0,0,0,1.61.39c.5,0,1-.1,1-.57,0-1.09-2.77-.4-2.77-2.53,0-1.41,1.38-1.79,2.55-1.79a5,5,0,0,1,1.51.22l-.1,1.21a3.09,3.09,0,0,0-1.3-.27c-.39,0-1,0-1,.54,0,.95,2.77.31,2.77,2.42,0,1.52-1.28,1.93-2.58,1.93a6.06,6.06,0,0,1-1.74-.25Z"/><path class="b" d="M225.8,47h1.56v5.85H225.8Z"/><path class="b" d="M232.72,48.17h-1.44V47h4.44v1.16h-1.44v4.69h-1.56Z"/><path class="b" d="M241.27,50.66,239.1,47h1.79L242,49.36,243.18,47H245l-2.15,3.65v2.2h-1.56Z"/><path class="d" d="M100,6.64h5.46c2.21,0,3.86,1,3.86,3a2.69,2.69,0,0,1-2.09,2.77v0c1.58.32,2.4,1.17,2.4,2.62,0,2.84-2.5,3.43-4.62,3.43h-5Zm3.16,4.69h.88c1,0,2.11-.25,2.11-1.26s-1-1.19-2.07-1.19h-.92Zm0,4.93h.94c1.16,0,2.36-.17,2.36-1.38s-1.24-1.41-2.33-1.41h-1Z"/><path class="d" d="M117.3,12.1a3.53,3.53,0,0,0-1-.1c-1.43,0-2.23,1-2.23,2.77v3.74H111V9.65h2.79v1.63h0a2.73,2.73,0,0,1,2.62-1.84,6.47,6.47,0,0,1,1,.1Z"/><path class="d" d="M117.46,14.09c0-2.94,2.23-4.64,5.15-4.64s5.15,1.7,5.15,4.64-2.23,4.62-5.15,4.62S117.46,17,117.46,14.09Zm7.14,0c0-1.33-.58-2.5-2-2.5s-2,1.17-2,2.5.58,2.48,2,2.48S124.6,15.4,124.6,14.09Z"/><path class="d" d="M128.1,9.65h3.2L132.72,16h0l1.53-6.37H138l1.5,6.37h0l1.39-6.37h3l-2.7,8.86h-3.55l-1.5-6.41h0l-1.68,6.41h-3.55Z"/><path class="d" d="M144.6,9.65h2.79v1.63h0a3.36,3.36,0,0,1,3.23-1.84A3.21,3.21,0,0,1,154,13v5.52H151V14.22c0-1.67-.58-2.23-1.41-2.23-1.26,0-1.9.87-1.9,2.77v3.74H144.6Z"/><path class="d" d="M158.27,15c.17,1.22,1.1,1.7,2.6,1.7a5.73,5.73,0,0,0,2.7-.68v2.16a8.86,8.86,0,0,1-3.25.56c-2.92,0-5.15-1.72-5.15-4.64a4.39,4.39,0,0,1,4.74-4.62c3.28,0,4.47,2.33,4.47,5V15Zm3.37-1.73a1.62,1.62,0,0,0-1.7-1.85c-1.1,0-1.63.83-1.7,1.85Z"/><path class="a" d="M170.7,6.64h3.77c3.62,0,5.32,1.22,5.32,3.89,0,2.4-1.75,3.82-4.71,3.82h-1.22v4.15H170.7Zm3.16,5.47h.82c1.09,0,2-.39,2-1.63s-.87-1.6-2-1.6h-.82Z"/><path class="a" d="M180.25,14.09c0-2.94,2.23-4.64,5.15-4.64s5.15,1.7,5.15,4.64-2.23,4.62-5.15,4.62S180.25,17,180.25,14.09Zm7.14,0c0-1.33-.58-2.5-2-2.5s-2,1.17-2,2.5.58,2.48,2,2.48S187.39,15.4,187.39,14.09Z"/><path class="a" d="M191.54,9.65h2.82v1.6h0a3.49,3.49,0,0,1,3.3-1.8c2.45,0,3.79,2.33,3.79,4.47,0,2.62-1.41,4.79-4,4.79a3.07,3.07,0,0,1-2.8-1.44h0v4.81h-3.06Zm4.93,2.14c-1.12,0-1.87,1-1.87,2.31a2.08,2.08,0,0,0,1.87,2.26c1.16,0,1.85-1,1.85-2.38A2,2,0,0,0,196.47,11.79Z"/><path class="a" d="M212.06,18.51h-2.79V16.88h0A3.36,3.36,0,0,1,206,18.71a3.21,3.21,0,0,1-3.38-3.54V9.65h3.06v4.28c0,1.67.58,2.23,1.41,2.23,1.26,0,1.9-.87,1.9-2.77V9.65h3.06Z"/><path class="a" d="M214,5.76H217V18.51H214Z"/><path class="a" d="M224.76,18.51c0-.48-.07-.94-.07-1.39h0a3,3,0,0,1-2.8,1.6c-1.75,0-3.31-.87-3.31-2.79,0-2.7,2.94-3,4.57-3a8.91,8.91,0,0,1,1.43.12c0-1.21-.92-1.53-2-1.53a5.76,5.76,0,0,0-2.82.66l-.05-2.07a9.15,9.15,0,0,1,3.54-.63c2.26,0,4.22,1,4.22,3.67v3.3a10.87,10.87,0,0,0,.17,2.09Zm-2.11-1.84a2,2,0,0,0,1.89-2.09c-.39,0-.83-.05-1.29-.05-1,0-1.85.32-1.85,1.17C221.39,16.31,221.94,16.67,222.65,16.67Z"/><path class="a" d="M235.33,12.1a3.53,3.53,0,0,0-1-.1c-1.43,0-2.23,1-2.23,2.77v3.74H229V9.65h2.79v1.63h0a2.73,2.73,0,0,1,2.62-1.84,6.49,6.49,0,0,1,1,.1Z"/><path class="a" d="M110,34.24a13.15,13.15,0,0,1-3.52.48c-3.16,0-6.82-1.6-6.82-6.09,0-4.13,2.89-6.19,6.8-6.19A12.34,12.34,0,0,1,110,23l-.25,2.57a6.21,6.21,0,0,0-3.09-.83A3.61,3.61,0,0,0,103,28.63a3.63,3.63,0,0,0,4,3.74,8.32,8.32,0,0,0,3-.61Z"/><path class="a" d="M120.61,34.51h-2.79V32.88h0a3.36,3.36,0,0,1-3.23,1.84,3.21,3.21,0,0,1-3.38-3.54V25.65h3.06v4.28c0,1.67.58,2.23,1.41,2.23,1.26,0,1.9-.87,1.9-2.77V25.65h3.06Z"/><path class="a" d="M122.74,21.76h3.06V34.51h-3.06Z"/><path class="a" d="M127.14,25.65h1.8v-2l3-.94v2.92h2.14v2.14H132v3.26c0,1.07.26,1.61,1.22,1.61a5.88,5.88,0,0,0,.93-.12l.1,2a14.77,14.77,0,0,1-1.92.17c-2.74,0-3.4-1.21-3.4-3.32v-3.6h-1.75Z"/><path class="a" d="M144.77,34.51H142V32.88h0a3.36,3.36,0,0,1-3.23,1.84,3.21,3.21,0,0,1-3.38-3.54V25.65h3.06v4.28c0,1.67.58,2.23,1.41,2.23,1.26,0,1.9-.87,1.9-2.77V25.65h3.06Z"/><path class="a" d="M152.86,28.1a3.54,3.54,0,0,0-1-.1c-1.43,0-2.23,1-2.23,2.77v3.74h-3.06V25.65h2.79v1.63h0A2.73,2.73,0,0,1,152,25.45a6.43,6.43,0,0,1,1,.1Z"/><path class="a" d="M156.32,31c.17,1.22,1.1,1.7,2.6,1.7a5.73,5.73,0,0,0,2.7-.68v2.16a8.85,8.85,0,0,1-3.25.56c-2.92,0-5.15-1.72-5.15-4.64A4.39,4.39,0,0,1,158,25.45c3.28,0,4.47,2.33,4.47,5V31Zm3.37-1.73a1.62,1.62,0,0,0-1.7-1.85c-1.1,0-1.63.83-1.7,1.85Z"/><path class="d" d="M169.12,22.64h3.16v9.52h4.9v2.35h-8.06Z"/><path class="d" d="M181.63,24.21h-3.06V22h3.06Zm-3.06,1.45h3.06v8.86h-3.06Z"/><path class="d" d="M183.62,21.76h3.08v5h0a3.61,3.61,0,0,1,3-1.34c2.45,0,3.79,2.33,3.79,4.47,0,2.62-1.41,4.79-4,4.79a3.28,3.28,0,0,1-3-1.79h0v1.58h-2.82Zm4.93,6c-1.12,0-1.87,1-1.87,2.31a2.08,2.08,0,0,0,1.87,2.26c1.16,0,1.85-1,1.85-2.38A2,2,0,0,0,188.55,27.79Z"/><path class="d" d="M201.23,28.1a3.54,3.54,0,0,0-1-.1c-1.43,0-2.23,1-2.23,2.77v3.74h-3.06V25.65h2.79v1.63h0a2.73,2.73,0,0,1,2.62-1.84,6.43,6.43,0,0,1,1,.1Z"/><path class="d" d="M207.93,34.51c0-.48-.07-.93-.07-1.39h0a3,3,0,0,1-2.8,1.6c-1.75,0-3.31-.87-3.31-2.79,0-2.7,2.94-3,4.57-3a8.93,8.93,0,0,1,1.43.12c0-1.21-.92-1.53-2-1.53a5.76,5.76,0,0,0-2.82.66l-.05-2.07a9.14,9.14,0,0,1,3.54-.63c2.26,0,4.22,1,4.22,3.67v3.3a10.85,10.85,0,0,0,.17,2.09Zm-2.11-1.84a2,2,0,0,0,1.89-2.09c-.39,0-.83-.05-1.29-.05-1,0-1.85.32-1.85,1.17C204.56,32.31,205.11,32.67,205.82,32.67Z"/><path class="d" d="M218.52,28.1a3.54,3.54,0,0,0-1-.1c-1.43,0-2.23,1-2.23,2.77v3.74H212.2V25.65H215v1.63h0a2.73,2.73,0,0,1,2.62-1.84,6.43,6.43,0,0,1,1,.1Z"/><path class="d" d="M219.62,35.75a3.66,3.66,0,0,0,1.21.19,1.55,1.55,0,0,0,1.55-1.22l-3.59-9.06h3.3l1.9,5.78h0l1.82-5.78h3.06l-3.25,8.24c-.87,2.23-1.53,4.38-4.33,4.38a9,9,0,0,1-1.9-.2Z"/></svg>