<svg xmlns="http://www.w3.org/2000/svg" viewBox="0 0 244.97 52.96"><defs><style>.a{fill:#f47932;}.b{fill:#231f20;}.c{fill:none;stroke:#231f20;stroke-width:0.5px;}.d{fill:#808285;}</style></defs><title>cac</title><path class="a" d="M0,30.42v-22H10.53c4.14,0,7.61,1.89,7.61,5.75,0,2.71-2.28,4.35-4.75,4.81v.06c2.92.4,5.29,2.25,5.29,5.39,0,6.39-8.15,6-8.37,6Zm9.65-4.26a2.38,2.38,0,1,0,.43-4.75h-4v4.75Zm-3.56-9,3.1,0c1.64,0,2.71-.64,2.71-2.31A2.26,2.26,0,0,0,9.4,12.71H6.09Z"/><path class="a" d="M35,22.2H30.52V17.94H41.08V29.69c-4.93.73-5.87,1.19-11.17,1.19-6.85-.21-11-4.56-11-11.44S23.07,8.2,29.92,8c5.32-.15,10.92.64,11,7H34.85c-.3-2.13-2-2.77-4-2.77-4.11,0-5.57,3.62-5.57,7.18,0,4.32,2.16,7.18,6.54,7.18A16.45,16.45,0,0,0,35,26.25Z"/><path class="b" d="M49.92,31a6.35,6.35,0,0,1-6.53-6.17h2.13c.06,3.37,2.55,4.34,5.5,4.34,2.46,0,5.29-1.43,5.29-4.22,0-2.19-1.58-3.22-3.43-3.83-3.55-1.19-9-2.31-9-7,0-3.83,3.52-5.92,7-5.92,2.89,0,6.65,1,7.14,5.23H55.9c-.06-2.7-2.52-3.4-4.77-3.4S46,11.11,46,13.78c0,6.23,12.4,3.4,12.4,11C58.42,29.52,54.32,31,49.92,31Z"/><path class="b" d="M62.69,8.58V22.77c.15,4,2.43,6.38,6,6.38s5.89-2.4,6-6.38V8.58h2V22.8c-.06,4.71-2.7,8.17-8,8.17s-8-3.46-8-8.17V8.58Z"/><path class="b" d="M80.32,28.6a1.37,1.37,0,0,1,.41,1,1.39,1.39,0,0,1-.41,1,1.42,1.42,0,0,1-2.42-1,1.37,1.37,0,0,1,.41-1,1.39,1.39,0,0,1,2,0Zm.21-.22a1.66,1.66,0,0,0-1.21-.5,1.68,1.68,0,0,0-1.18.46,1.64,1.64,0,0,0-.54,1.25,1.72,1.72,0,1,0,2.93-1.21Zm-1,1.08a.46.46,0,0,1-.27.07h-.19V29h.12a.83.83,0,0,1,.29,0,.22.22,0,0,1,.15.22A.26.26,0,0,1,79.52,29.47Zm-.46.41h.21l.17,0a.22.22,0,0,1,.14.14.91.91,0,0,1,0,.23,1.3,1.3,0,0,0,0,.26h.48l0-.05a.26.26,0,0,1,0-.06.54.54,0,0,1,0-.06v-.17a.51.51,0,0,0-.17-.43.66.66,0,0,0-.27-.11.63.63,0,0,0,.33-.13.42.42,0,0,0,.13-.35.48.48,0,0,0-.25-.46.9.9,0,0,0-.37-.1h-.92v1.9h.5Z"/><line class="c" x1="88.94" x2="88.94" y2="39.28"/><path class="b" d="M0,47H2.69c1.09,0,1.9.48,1.9,1.48a1.33,1.33,0,0,1-1,1.37v0c.78.16,1.18.58,1.18,1.29,0,1.4-1.23,1.69-2.28,1.69H0Zm1.56,2.31H2c.51,0,1-.13,1-.62s-.5-.59-1-.59H1.56Zm0,2.43H2c.57,0,1.16-.08,1.16-.68s-.61-.7-1.15-.7H1.56Z"/><path class="b" d="M11.53,46.91a2.7,2.7,0,0,1,2.93,3,2.72,2.72,0,0,1-2.93,3,2.72,2.72,0,0,1-2.93-3A2.7,2.7,0,0,1,11.53,46.91Zm0,4.9c.95,0,1.32-.91,1.32-1.87s-.38-1.87-1.32-1.87-1.32.86-1.32,1.87S10.58,51.81,11.53,51.81Z"/><path class="b" d="M18,47h1.59l.75,4.49h0L21.2,47h2L24,51.5h0L24.77,47h1.52L25,52.86H23l-.83-4.49h0l-.77,4.49h-2Z"/><path class="b" d="M30.09,47h1.56v4.69h2.41v1.16h-4Z"/><path class="b" d="M38,47h1.56v5.85H38Z"/><path class="b" d="M43.94,47h2l2,4h0l0-4h1.43v5.85H47.38l-2-4h0l.05,4H43.94Z"/><path class="b" d="M59,52.7a8.61,8.61,0,0,1-2.26.27c-1.56,0-3.36-.79-3.36-3s1.55-3.05,3.7-3.05a5.63,5.63,0,0,1,1.77.26l-.13,1.28a3,3,0,0,0-1.42-.38c-1.27,0-2.3.53-2.3,1.89a1.79,1.79,0,0,0,2,1.85,1.37,1.37,0,0,0,.55-.1V50.55H56.6V49.44H59Z"/><path class="b" d="M74.48,52.7a8.61,8.61,0,0,1-2.26.27c-1.56,0-3.36-.79-3.36-3s1.55-3.05,3.69-3.05a5.63,5.63,0,0,1,1.77.26l-.13,1.28a3,3,0,0,0-1.43-.38c-1.27,0-2.3.53-2.3,1.89a1.79,1.79,0,0,0,2,1.85,1.37,1.37,0,0,0,.55-.1V50.55h-.91V49.44h2.42Z"/><path class="b" d="M78.74,47h2.78c1,0,1.89.47,1.89,1.47A1.37,1.37,0,0,1,82.28,50v0c.5.13.54.58.83,1.29l.57,1.59H82.06l-.34-1.05c-.32-1-.52-1.26-1.1-1.26H80.3v2.31H78.74Zm1.56,2.43h.41c.5,0,1.14,0,1.14-.68s-.54-.65-1.14-.65H80.3Z"/><path class="b" d="M87.51,47h4.12v1.11H89.07v1.21h2.42v1.11H89.07v1.32h2.66v1.11H87.51Z"/><path class="b" d="M95.82,47h4.12v1.11H97.38v1.21H99.8v1.11H97.38v1.32H100v1.11H95.82Z"/><path class="b" d="M104.19,47h2l2,4h0l0-4h1.42v5.85h-1.93l-2-4h0l.05,4h-1.43Z"/><path class="b" d="M119.64,51.42a3.44,3.44,0,0,0,1.61.39c.49,0,1-.1,1-.57,0-1.09-2.77-.4-2.77-2.53,0-1.41,1.38-1.79,2.55-1.79a5,5,0,0,1,1.51.22l-.1,1.21a3.09,3.09,0,0,0-1.3-.27c-.39,0-1,0-1,.54,0,.95,2.77.31,2.77,2.42,0,1.52-1.28,1.93-2.57,1.93a6.06,6.06,0,0,1-1.74-.25Z"/><path class="b" d="M128.93,48.17h-1.44V47h4.44v1.16h-1.44v4.69h-1.56Z"/><path class="b" d="M136.89,47h1.91l2.26,5.85h-1.71l-.44-1.25h-2.2l-.46,1.25h-1.58Zm1,1.21h0l-.75,2.29h1.46Z"/><path class="b" d="M145.29,48.17h-1.44V47h4.44v1.16h-1.44v4.69h-1.56Z"/><path class="b" d="M152.09,47h4.12v1.11h-2.56v1.21h2.42v1.11h-2.42v1.32h2.65v1.11h-4.21Z"/><path class="b" d="M171.23,50.64c0,1.6-1,2.32-2.56,2.32s-2.57-.72-2.57-2.32V47h1.56v3.37c0,.77.21,1.43,1,1.43s1-.66,1-1.43V47h1.56Z"/><path class="b" d="M175.44,47h2l2,4h0l0-4h1.43v5.85h-1.94l-2-4h0l.05,4h-1.44Z"/><path class="b" d="M185.2,47h1.56v5.85H185.2Z"/><path class="b" d="M190.65,47h1.66l1.3,4.59h0l1.3-4.59h1.6l-2,5.85h-1.93Z"/><path class="b" d="M200.3,47h4.13v1.11h-2.57v1.21h2.42v1.11h-2.42v1.32h2.66v1.11H200.3Z"/><path class="b" d="M208.61,47h2.78c1,0,1.88.47,1.88,1.47A1.37,1.37,0,0,1,212.15,50v0c.5.13.54.58.83,1.29l.57,1.59h-1.63l-.34-1.05c-.32-1-.52-1.26-1.1-1.26h-.33v2.31h-1.56Zm1.56,2.43h.41c.5,0,1.14,0,1.14-.68s-.54-.65-1.14-.65h-.41Z"/><path class="b" d="M217.44,51.42a3.45,3.45,0,0,0,1.61.39c.5,0,1-.1,1-.57,0-1.09-2.77-.4-2.77-2.53,0-1.41,1.38-1.79,2.55-1.79a5,5,0,0,1,1.51.22l-.1,1.21a3.09,3.09,0,0,0-1.3-.27c-.39,0-1,0-1,.54,0,.95,2.77.31,2.77,2.42,0,1.52-1.28,1.93-2.58,1.93a6.06,6.06,0,0,1-1.74-.25Z"/><path class="b" d="M225.8,47h1.56v5.85H225.8Z"/><path class="b" d="M232.72,48.17h-1.44V47h4.44v1.16h-1.44v4.69h-1.56Z"/><path class="b" d="M241.27,50.66,239.1,47h1.79L242,49.36,243.18,47H245l-2.15,3.65v2.2h-1.56Z"/><path class="d" d="M108.73,18.27a11.6,11.6,0,0,1-3.1.42c-2.79,0-6-1.41-6-5.37,0-3.64,2.55-5.46,6-5.46a10.87,10.87,0,0,1,3.1.54l-.22,2.26a5.49,5.49,0,0,0-2.73-.73,3.18,3.18,0,0,0-3.27,3.39,3.2,3.2,0,0,0,3.5,3.3,7.37,7.37,0,0,0,2.61-.54Z"/><path class="d" d="M111.92,15.39c.15,1.08,1,1.5,2.29,1.5a5.06,5.06,0,0,0,2.38-.6v1.9a7.83,7.83,0,0,1-2.86.5c-2.58,0-4.54-1.52-4.54-4.1a3.88,3.88,0,0,1,4.18-4.08c2.9,0,3.94,2.05,3.94,4.38v.5Zm3-1.53a1.43,1.43,0,0,0-1.5-1.63c-1,0-1.44.73-1.5,1.63Z"/><path class="d" d="M118.43,10.69h2.46v1.44h0a3,3,0,0,1,2.85-1.62,2.83,2.83,0,0,1,3,3.12v4.88h-2.7V14.73c0-1.47-.51-2-1.25-2-1.11,0-1.68.76-1.68,2.44v3.3h-2.7Z"/><path class="d" d="M127.45,10.69H129V8.94l2.66-.82v2.58h1.89v1.89h-1.89v2.88c0,.94.22,1.42,1.08,1.42a5.16,5.16,0,0,0,.82-.11l.09,1.75a12.93,12.93,0,0,1-1.7.15c-2.42,0-3-1.06-3-2.93V12.58h-1.54Z"/><path class="d" d="M136.85,15.39c.15,1.08,1,1.5,2.3,1.5a5.06,5.06,0,0,0,2.38-.6v1.9a7.84,7.84,0,0,1-2.87.5c-2.58,0-4.54-1.52-4.54-4.1a3.88,3.88,0,0,1,4.18-4.08c2.9,0,3.95,2.05,3.95,4.38v.5Zm3-1.53a1.43,1.43,0,0,0-1.5-1.63c-1,0-1.44.73-1.5,1.63Z"/><path class="d" d="M148.94,12.85a3.12,3.12,0,0,0-.92-.09c-1.26,0-2,.91-2,2.44v3.3h-2.7V10.69h2.46v1.44h0a2.41,2.41,0,0,1,2.31-1.62,5.72,5.72,0,0,1,.91.09Z"/><path class="d" d="M155,12.58h-1.59V10.69H155v-.48c0-2.33,1.09-3.14,3.25-3.14a7.43,7.43,0,0,1,1.38.15l-.16,1.86a2.46,2.46,0,0,0-.86-.12c-.69,0-1,.48-1,1.25v.48h1.92v1.89h-1.92v5.92H155Z"/><path class="d" d="M159.94,14.61c0-2.59,2-4.09,4.54-4.09S169,12,169,14.61s-2,4.08-4.54,4.08S159.94,17.19,159.94,14.61Zm6.3,0c0-1.17-.51-2.2-1.75-2.2s-1.75,1-1.75,2.21.51,2.19,1.75,2.19S166.24,15.76,166.24,14.61Z"/><path class="d" d="M175.55,12.85a3.12,3.12,0,0,0-.92-.09c-1.26,0-2,.91-2,2.44v3.3H170V10.69h2.46v1.44h0a2.41,2.41,0,0,1,2.31-1.62,5.72,5.72,0,0,1,.91.09Z"/><path class="a" d="M103.12,24h3.42l4,10.47h-3.06l-.78-2.23H102.8L102,34.51H99.14Zm1.71,2.16h0l-1.35,4.09h2.62Z"/><path class="a" d="M116.78,28.85a3.12,3.12,0,0,0-.91-.09c-1.26,0-2,.92-2,2.45v3.3h-2.7V26.69h2.46v1.44h0A2.41,2.41,0,0,1,116,26.51a5.73,5.73,0,0,1,.92.09Z"/><path class="a" d="M123.39,28.93a3,3,0,0,0-1.64-.43,2,2,0,0,0-2.07,2.16,2.11,2.11,0,0,0,2.22,2.06,3.7,3.7,0,0,0,1.68-.37l.06,2a7.3,7.3,0,0,1-2.2.34c-2.58,0-4.54-1.5-4.54-4.08s2-4.09,4.54-4.09a4.84,4.84,0,0,1,2.14.44Z"/><path class="a" d="M124.44,23.26h2.7v4.59h0a3.08,3.08,0,0,1,2.61-1.34,2.83,2.83,0,0,1,3,3.12v4.88h-2.7V30.73c0-1.47-.51-2-1.25-2-1.11,0-1.68.76-1.68,2.45v3.3h-2.7Z"/><path class="a" d="M137.13,25.42h-2.7v-2h2.7Zm-2.7,1.28h2.7v7.81h-2.7Z"/><path class="a" d="M138.1,26.69H141l1.62,5.56h0l1.64-5.56H147l-2.89,7.81H141Z"/><path class="a" d="M152.37,34.51c0-.42-.06-.82-.06-1.23h0a2.68,2.68,0,0,1-2.48,1.41c-1.54,0-2.92-.76-2.92-2.46,0-2.38,2.59-2.67,4-2.67a7.85,7.85,0,0,1,1.26.11c0-1.07-.81-1.35-1.79-1.35a5.08,5.08,0,0,0-2.49.59l0-1.83a8.08,8.08,0,0,1,3.12-.55c2,0,3.72.86,3.72,3.24v2.91a9.55,9.55,0,0,0,.15,1.84Zm-1.86-1.62A1.76,1.76,0,0,0,152.17,31c-.34,0-.74,0-1.14,0-.91,0-1.63.29-1.63,1C149.4,32.57,149.88,32.89,150.51,32.89Z"/><path class="a" d="M156,23.26h2.7V34.51H156Z"/><path class="a" d="M172,34.27a11.64,11.64,0,0,1-3.11.42c-2.79,0-6-1.41-6-5.37,0-3.64,2.55-5.46,6-5.46a10.89,10.89,0,0,1,3.1.54l-.22,2.27a5.48,5.48,0,0,0-2.73-.74,3.18,3.18,0,0,0-3.27,3.39,3.2,3.2,0,0,0,3.5,3.3,7.34,7.34,0,0,0,2.61-.54Z"/><path class="a" d="M172.47,30.61c0-2.59,2-4.09,4.54-4.09s4.54,1.5,4.54,4.09-2,4.08-4.54,4.08S172.47,33.19,172.47,30.61Zm6.3,0c0-1.17-.51-2.2-1.75-2.2s-1.75,1-1.75,2.2.51,2.19,1.75,2.19S178.77,31.76,178.77,30.61Z"/><path class="a" d="M182.81,23.26h2.7V34.51h-2.7Z"/><path class="a" d="M187.44,23.26h2.7V34.51h-2.7Z"/><path class="a" d="M194.16,31.39c.15,1.08,1,1.5,2.29,1.5a5.08,5.08,0,0,0,2.38-.6v1.9a7.84,7.84,0,0,1-2.87.5c-2.58,0-4.54-1.51-4.54-4.09a3.88,3.88,0,0,1,4.18-4.08c2.9,0,3.95,2.05,3.95,4.38v.5Zm3-1.53a1.43,1.43,0,0,0-1.5-1.63c-1,0-1.44.74-1.5,1.63Z"/><path class="a" d="M206.76,28.93a3,3,0,0,0-1.63-.43,2,2,0,0,0-2.07,2.16,2.11,2.11,0,0,0,2.22,2.06,3.7,3.7,0,0,0,1.68-.37l.06,2a7.3,7.3,0,0,1-2.21.34c-2.58,0-4.54-1.5-4.54-4.08s2-4.09,4.54-4.09a4.84,4.84,0,0,1,2.14.44Z"/><path class="a" d="M207.31,26.69h1.59V24.94l2.65-.83v2.58h1.89v1.89h-1.89v2.88c0,.95.23,1.43,1.08,1.43a5.18,5.18,0,0,0,.83-.11l.09,1.75a13,13,0,0,1-1.7.15c-2.41,0-3-1.07-3-2.92V28.58h-1.54Z"/><path class="a" d="M217.54,25.42h-2.7v-2h2.7Zm-2.7,1.28h2.7v7.81h-2.7Z"/><path class="a" d="M218.83,30.61c0-2.59,2-4.09,4.54-4.09s4.54,1.5,4.54,4.09-2,4.08-4.54,4.08S218.83,33.19,218.83,30.61Zm6.3,0c0-1.17-.51-2.2-1.75-2.2s-1.75,1-1.75,2.2.51,2.19,1.75,2.19S225.13,31.76,225.13,30.61Z"/><path class="a" d="M228.9,26.69h2.46v1.44h0a3,3,0,0,1,2.85-1.62,2.83,2.83,0,0,1,3,3.12v4.88h-2.7V30.73c0-1.47-.51-2-1.25-2-1.11,0-1.68.76-1.68,2.45v3.3h-2.7Z"/><path class="a" d="M238.42,32.35a6.69,6.69,0,0,0,2.53.54c.56,0,1.1-.09,1.1-.63,0-1.32-3.84-.39-3.84-3.21,0-1.8,1.77-2.54,3.33-2.54a7.46,7.46,0,0,1,2.75.45l-.21,1.88a4.42,4.42,0,0,0-2.1-.52c-.59,0-1.25.1-1.25.54,0,1.21,4,.25,4,3.22,0,2.08-1.87,2.61-3.64,2.61a8.83,8.83,0,0,1-2.83-.37Z"/></svg>