<svg xmlns="http://www.w3.org/2000/svg" version="1" viewBox="0 0 244.8 52.9">
  <g fill="#F47932">
    <path d="M0 30.4v-22h10.5c4.1 0 7.6 1.9 7.6 5.7 0 2.7-2.3 4.3-4.7 4.8v.1c2.9.4 5.3 2.3 5.3 5.4 0 6.4-8.1 6-8.4 6H0zm9.6-4.3c1.5 0 2.6-.9 2.6-2.3 0-1.2-.9-2.4-2.2-2.5H6V26h3.6zm-3.5-8.9h3.1c1.6 0 2.7-.6 2.7-2.3 0-1.2-1.1-2.1-2.5-2.1H6.1v4.4z"/>
    <path d="M35 22.2h-4.5v-4.3h10.6v11.7c-4.9.7-5.9 1.2-11.2 1.2-6.8-.2-11-4.6-11-11.4S23.1 8.2 29.9 8c5.3-.2 10.9.6 11 7h-6.1c-.3-2.1-2-2.8-4-2.8-4.1 0-5.6 3.6-5.6 7.2 0 4.3 2.2 7.2 6.5 7.2 1.1 0 2.3-.2 3.2-.4v-4z"/>
  </g>
  <g>
    <path d="M49.9 31c-3.5 0-6.4-2.5-6.5-6.2h2.1c.1 3.4 2.6 4.3 5.5 4.3 2.5 0 5.3-1.4 5.3-4.2 0-2.2-1.6-3.2-3.4-3.8-3.6-1.2-9-2.3-9-7 0-3.8 3.5-5.9 7-5.9 2.9 0 6.6 1 7.1 5.2h-2.1c-.1-2.7-2.5-3.4-4.8-3.4S46 11.2 46 13.8c0 6.2 12.4 3.4 12.4 11 0 4.7-4.1 6.2-8.5 6.2z"/>
    <path d="M62.6 8.6v14.2c.2 4 2.4 6.4 6 6.4s5.9-2.4 6-6.4V8.6h2v14.2c-.1 4.7-2.7 8.2-8 8.2s-8-3.5-8-8.2V8.6h2z"/>
    <path d="M80.3 28.6c.3.3.4.6.4 1s-.1.7-.4 1c-.3.3-.6.4-1 .4s-.7-.1-1-.4c-.3-.3-.4-.6-.4-1s.1-.7.4-1c.3-.3.6-.4 1-.4.3 0 .7.1 1 .4zm.2-.2c-.3-.3-.7-.5-1.2-.5s-.8.2-1.2.5c-.4.3-.5.7-.5 1.3 0 .5.2.9.5 1.2.3.3.7.5 1.2.5s.9-.2 1.2-.5c.3-.3.5-.7.5-1.2 0-.6-.2-1-.5-1.3zm-1 1c-.1 0-.2.1-.3.1H79V29h.4c.1 0 .2.1.2.2s-.1.2-.1.2zm-.5.5h.4c.1 0 .1.1.1.1v.5h.5V30c0-.2-.1-.3-.2-.4-.1 0-.2-.1-.3-.1.1 0 .2-.1.3-.1.1-.1.1-.2.1-.3 0-.2-.1-.4-.3-.5-.1-.1-.2-.1-.4-.1h-.9v1.9h.7v-.5z"/>
  </g>
  <path fill="none" stroke="#000" stroke-width=".5" d="M88.9 0v39.3"/>
  <g>
    <path d="M0 47h2.7c1.1 0 1.9.5 1.9 1.5 0 .7-.4 1.1-1 1.4.8.2 1.2.6 1.2 1.3 0 1.4-1.2 1.7-2.3 1.7H0V47zm1.6 2.3H2c.5 0 1-.1 1-.6s-.5-.6-1-.6h-.4v1.2zm0 2.4H2c.6 0 1.2-.1 1.2-.7s-.6-.7-1.1-.7h-.5v1.4z"/>
    <path d="M11.5 46.9c1.9 0 2.9 1.1 2.9 3s-1 3-2.9 3-2.9-1.2-2.9-3c0-1.9 1-3 2.9-3zm0 4.9c.9 0 1.3-.9 1.3-1.9 0-1-.4-1.9-1.3-1.9s-1.3.9-1.3 1.9c0 1 .4 1.9 1.3 1.9z"/>
    <path d="M18 47h1.6l.8 4.5.8-4.5h2l.8 4.5.8-4.5h1.5L25 52.8h-2l-.8-4.5-.8 4.5h-2L18 47z"/>
    <path d="M30.1 47h1.6v4.7H34v1.2h-4V47z"/>
    <path d="M38 47h1.6v5.8H38V47z"/>
    <path d="M43.9 47h2l2 4v-4h1.4v5.8h-1.9l-2-4 .1 4h-1.4V47z"/>
    <path d="M59 52.7c-1 .3-1.7.3-2.3.3-1.6 0-3.4-.8-3.4-3s1.5-3 3.7-3c.4 0 1.2 0 1.8.3l-.1 1.3c-.5-.3-1.1-.4-1.4-.4-1.3-.2-2.3.4-2.3 1.7 0 1.1.8 1.8 2 1.8.2 0 .4 0 .6-.1v-1.2h-.9v-1.1H59v3.4z"/>
    <path d="M74.4 52.7c-1 .3-1.7.3-2.3.3-1.6 0-3.4-.8-3.4-3s1.5-3 3.7-3c.4 0 1.2 0 1.8.3l-.1 1.3c-.5-.3-1.1-.4-1.4-.4-1.3 0-2.3.5-2.3 1.9 0 1.1.8 1.8 2 1.8.2 0 .4 0 .6-.1v-1.2h-1v-1.1h2.4v3.2z"/>
    <path d="M78.7 47h2.8c1 0 1.9.5 1.9 1.5 0 .8-.4 1.3-1.1 1.5.5.1.5.6.8 1.3l.6 1.6H82l-.3-1.1c-.3-1-.5-1.3-1.1-1.3h-.3v2.3h-1.6V47zm1.5 2.4h.4c.5 0 1.1 0 1.1-.7 0-.5-.5-.6-1.1-.6h-.4v1.3z"/>
    <path d="M87.5 47h4.1v1.1H89v1.2h2.4v1.1H89v1.3h2.7v1.1h-4.2V47z"/>
    <path d="M95.8 47h4.1v1.1h-2.6v1.2h2.4v1.1h-2.4v1.3h2.7v1.1h-4.2V47z"/>
    <path d="M104.1 47h2l2 4v-4h1.4v5.8h-1.9l-2-4 .1 4h-1.4V47z"/>
    <path d="M119.6 51.4c.4.2 1 .4 1.6.4.5 0 1-.1 1-.6 0-1.1-2.8-.4-2.8-2.5 0-1.4 1.4-1.8 2.5-1.8.6 0 1.1.1 1.5.2l-.1 1.2c-.4-.2-.9-.3-1.3-.3s-1 0-1 .5c0 .9 2.8.3 2.8 2.4 0 1.5-1.3 1.9-2.6 1.9-.5 0-1.2-.1-1.7-.3l.1-1.1z"/>
    <path d="M128.8 48.1h-1.4V47h4.4v1.2h-1.4v4.7h-1.6v-4.8z"/>
    <path d="M136.8 47h1.9l2.3 5.8h-1.7l-.4-1.2h-2.2l-.5 1.2h-1.6l2.2-5.8zm1 1.2l-.8 2.3h1.5l-.7-2.3z"/>
    <path d="M145.2 48.1h-1.4V47h4.4v1.2h-1.4v4.7h-1.6v-4.8z"/>
    <path d="M152 47h4.1v1.1h-2.6v1.2h2.4v1.1h-2.4v1.3h2.7v1.1H152V47z"/>
    <path d="M171.1 50.6c0 1.6-1 2.3-2.6 2.3-1.5 0-2.6-.7-2.6-2.3V47h1.6v3.4c0 .8.2 1.4 1 1.4s1-.7 1-1.4V47h1.6v3.6z"/>
    <path d="M175.3 47h2l2 4v-4h1.4v5.8h-1.9l-2-4 .1 4h-1.4V47z"/>
    <path d="M185.1 47h1.6v5.8h-1.6V47z"/>
    <path d="M190.5 47h1.7l1.3 4.6 1.3-4.6h1.6l-2 5.8h-1.9l-2-5.8z"/>
    <path d="M200.2 47h4.1v1.1h-2.6v1.2h2.4v1.1h-2.4v1.3h2.7v1.1h-4.2V47z"/>
    <path d="M208.5 47h2.8c1 0 1.9.5 1.9 1.5 0 .8-.4 1.3-1.1 1.5.5.1.5.6.8 1.3l.6 1.6h-1.6l-.3-1.1c-.3-1-.5-1.3-1.1-1.3h-.5v2.3h-1.6V47zm1.5 2.4h.4c.5 0 1.1 0 1.1-.7 0-.5-.5-.6-1.1-.6h-.4v1.3z"/>
    <path d="M217.3 51.4c.4.2 1 .4 1.6.4.5 0 1-.1 1-.6 0-1.1-2.8-.4-2.8-2.5 0-1.4 1.4-1.8 2.5-1.8.6 0 1.1.1 1.5.2l-.1 1.2c-.4-.2-.9-.3-1.3-.3s-1 0-1 .5c0 .9 2.8.3 2.8 2.4 0 1.5-1.3 1.9-2.6 1.9-.5 0-1.2-.1-1.7-.3l.1-1.1z"/>
    <path d="M225.6 47h1.6v5.8h-1.6V47z"/>
    <path d="M232.6 48.1h-1.4V47h4.4v1.2h-1.4v4.7h-1.6v-4.8z"/>
    <path d="M241.1 50.6l-2.2-3.6h1.8l1.1 2.3L243 47h1.8l-2.1 3.6v2.2h-1.6v-2.2z"/>
  </g>
  <g>
    <path fill="#808285" d="M108.7 18.3c-.8.2-1.7.4-3.1.4-2.8 0-6-1.4-6-5.4 0-3.6 2.5-5.5 6-5.5 1.1 0 2.1.2 3.1.5l-.2 2.3c-.9-.5-1.8-.7-2.7-.7-2 0-3.3 1.4-3.3 3.4 0 2.1 1.5 3.3 3.5 3.3.9 0 1.8-.2 2.6-.5l.1 2.2z"/>
    <path fill="#808285" d="M111.8 15.4c.1 1.1 1 1.5 2.3 1.5.7 0 1.6-.2 2.4-.6v1.9c-.9.3-1.9.5-2.9.5-2.6 0-4.5-1.5-4.5-4.1 0-2.6 1.8-4.1 4.2-4.1 2.9 0 3.9 2.1 3.9 4.4v.5h-5.4zm3-1.6c0-.9-.4-1.6-1.5-1.6-1 0-1.4.7-1.5 1.6h3z"/>
    <path fill="#808285" d="M118.4 10.7h2.5v1.4c.5-1.1 1.6-1.6 2.8-1.6 2.1 0 3 1.5 3 3.1v4.9H124v-3.8c0-1.5-.5-2-1.2-2-1.1 0-1.7.8-1.7 2.4v3.3h-2.7v-7.7z"/>
    <path fill="#808285" d="M127.4 10.7h1.6V8.9l2.7-.8v2.6h1.9v1.9h-1.9v2.9c0 .9.2 1.4 1.1 1.4.3 0 .6-.1.8-.1l.1 1.8c-.5.1-1 .2-1.7.2-2.4 0-3-1.1-3-2.9v-3.2h-1.5v-2z"/>
    <path fill="#808285" d="M136.8 15.4c.1 1.1 1 1.5 2.3 1.5.7 0 1.6-.2 2.4-.6v1.9c-.9.3-1.9.5-2.9.5-2.6 0-4.5-1.5-4.5-4.1 0-2.6 1.8-4.1 4.2-4.1 2.9 0 3.9 2.1 3.9 4.4v.5h-5.4zm2.9-1.6c0-.9-.4-1.6-1.5-1.6-1 0-1.4.7-1.5 1.6h3z"/>
    <path fill="#808285" d="M148.8 12.8c-.3-.1-.6-.1-.9-.1-1.3 0-2 .9-2 2.4v3.3h-2.7v-7.8h2.5V12c.5-1 1.1-1.6 2.3-1.6.3 0 .6 0 .9.1l-.1 2.3z"/>
    <path fill="#808285" d="M154.9 12.6h-1.6v-1.9h1.6v-.5c0-2.3 1.1-3.1 3.3-3.1.6 0 1 .1 1.4.1l-.2 1.9c-.3-.1-.5-.1-.9-.1-.7 0-1 .5-1 1.2v.5h1.9v1.9h-1.9v5.9h-2.7v-5.9z"/>
    <path fill="#808285" d="M159.8 14.6c0-2.6 2-4.1 4.5-4.1s4.5 1.5 4.5 4.1c0 2.6-2 4.1-4.5 4.1s-4.5-1.5-4.5-4.1zm6.3 0c0-1.2-.5-2.2-1.8-2.2s-1.8 1-1.8 2.2c0 1.2.5 2.2 1.8 2.2s1.8-1 1.8-2.2z"/>
    <path fill="#808285" d="M175.4 12.8c-.3-.1-.6-.1-.9-.1-1.3 0-2 .9-2 2.4v3.3h-2.7v-7.8h2.5V12c.5-1 1.1-1.6 2.3-1.6.3 0 .6 0 .9.1l-.1 2.3z"/>
    <path fill="#F47932" d="M103 24h3.4l4 10.5h-3.1l-.8-2.2h-3.9l-.8 2.2H99l4-10.5zm1.8 2.2l-1.4 4.1h2.6l-1.2-4.1z"/>
    <path fill="#F47932" d="M116.7 28.8c-.3-.1-.6-.1-.9-.1-1.3 0-2 .9-2 2.4v3.3h-2.7v-7.8h2.5V28c.5-1 1.1-1.6 2.3-1.6.3 0 .6 0 .9.1l-.1 2.3z"/>
    <path fill="#F47932" d="M123.3 28.9c-.5-.3-1-.4-1.6-.4-1.2 0-2.1.8-2.1 2.2 0 1.2 1 2.1 2.2 2.1.6 0 1.2-.1 1.7-.4l.1 2c-.7.2-1.5.3-2.2.3-2.6 0-4.5-1.5-4.5-4.1 0-2.6 2-4.1 4.5-4.1.8 0 1.5.1 2.1.4l-.2 2z"/>
    <path fill="#F47932" d="M124.4 23.2h2.7v4.6c.6-.8 1.4-1.3 2.6-1.3 2.1 0 3 1.5 3 3.1v4.9H130v-3.8c0-1.5-.5-2-1.2-2-1.1 0-1.7.8-1.7 2.4v3.3h-2.7V23.2z"/>
    <path fill="#F47932" d="M137 25.4h-2.7v-2h2.7v2zm-2.7 1.3h2.7v7.8h-2.7v-7.8z"/>
    <path fill="#F47932" d="M138 26.7h2.9l1.6 5.6 1.6-5.6h2.7l-2.9 7.8h-3.1l-2.8-7.8z"/>
    <path fill="#F47932" d="M152.3 34.5c0-.4-.1-.8-.1-1.2-.6 1-1.4 1.4-2.5 1.4-1.5 0-2.9-.8-2.9-2.5 0-2.4 2.6-2.7 4-2.7.4 0 .9 0 1.3.1 0-1.1-.8-1.3-1.8-1.3-.9 0-1.7.2-2.5.6v-1.8c1-.4 2-.6 3.1-.6 2 0 3.7.9 3.7 3.2v2.9c0 .6 0 1.2.2 1.8h-2.5zm-1.9-1.6c1 0 1.7-.9 1.7-1.8H151c-.9 0-1.6.3-1.6 1-.1.4.4.8 1 .8z"/>
    <path fill="#F47932" d="M155.9 23.2h2.7v11.2h-2.7V23.2z"/>
    <path fill="#F47932" d="M171.9 34.2c-.8.2-1.7.4-3.1.4-2.8 0-6-1.4-6-5.4 0-3.6 2.5-5.5 6-5.5 1.1 0 2.1.2 3.1.5l-.2 2.3c-.9-.5-1.8-.7-2.7-.7-2 0-3.3 1.4-3.3 3.4 0 2.1 1.5 3.3 3.5 3.3.9 0 1.8-.2 2.6-.5l.1 2.2z"/>
    <path fill="#F47932" d="M172.4 30.6c0-2.6 2-4.1 4.5-4.1 2.6 0 4.5 1.5 4.5 4.1 0 2.6-2 4.1-4.5 4.1-2.6 0-4.5-1.5-4.5-4.1zm6.2 0c0-1.2-.5-2.2-1.8-2.2s-1.8 1-1.8 2.2c0 1.2.5 2.2 1.8 2.2s1.8-1.1 1.8-2.2z"/>
    <path fill="#F47932" d="M182.7 23.2h2.7v11.2h-2.7V23.2z"/>
    <path fill="#F47932" d="M187.3 23.2h2.7v11.2h-2.7V23.2z"/>
    <path fill="#F47932" d="M194 31.4c.1 1.1 1 1.5 2.3 1.5.7 0 1.6-.2 2.4-.6v1.9c-.9.3-1.9.5-2.9.5-2.6 0-4.5-1.5-4.5-4.1s1.8-4.1 4.2-4.1c2.9 0 3.9 2.1 3.9 4.4v.5H194zm3-1.6c0-.9-.4-1.6-1.5-1.6-1 0-1.4.7-1.5 1.6h3z"/>
    <path fill="#F47932" d="M206.6 28.9c-.5-.3-1-.4-1.6-.4-1.2 0-2.1.8-2.1 2.2 0 1.2 1 2.1 2.2 2.1.6 0 1.2-.1 1.7-.4l.1 2c-.7.2-1.5.3-2.2.3-2.6 0-4.5-1.5-4.5-4.1 0-2.6 2-4.1 4.5-4.1.8 0 1.5.1 2.1.4l-.2 2z"/>
    <path fill="#F47932" d="M207.2 26.7h1.6v-1.8l2.7-.8v2.6h1.9v1.9h-1.9v2.9c0 .9.2 1.4 1.1 1.4.3 0 .6-.1.8-.1l.1 1.8c-.5.1-1 .2-1.7.2-2.4 0-3-1.1-3-2.9v-3.2h-1.5v-2z"/>
    <path fill="#F47932" d="M217.4 25.4h-2.7v-2h2.7v2zm-2.7 1.3h2.7v7.8h-2.7v-7.8z"/>
    <path fill="#F47932" d="M218.7 30.6c0-2.6 2-4.1 4.5-4.1 2.6 0 4.5 1.5 4.5 4.1 0 2.6-2 4.1-4.5 4.1-2.6 0-4.5-1.5-4.5-4.1zm6.3 0c0-1.2-.5-2.2-1.8-2.2-1.2 0-1.8 1-1.8 2.2 0 1.2.5 2.2 1.8 2.2s1.8-1.1 1.8-2.2z"/>
    <path fill="#F47932" d="M228.7 26.7h2.5v1.4c.5-1.1 1.6-1.6 2.8-1.6 2.1 0 3 1.5 3 3.1v4.9h-2.7v-3.8c0-1.5-.5-2-1.2-2-1.1 0-1.7.8-1.7 2.4v3.3h-2.7v-7.7z"/>
    <path fill="#F47932" d="M238.3 32.3c.6.3 1.6.5 2.5.5.6 0 1.1-.1 1.1-.6 0-1.3-3.8-.4-3.8-3.2 0-1.8 1.8-2.5 3.3-2.5.9 0 1.9.1 2.7.4l-.2 1.9c-.6-.3-1.4-.5-2.1-.5-.6 0-1.2.1-1.2.5 0 1.2 4 .3 4 3.2 0 2.1-1.9 2.6-3.6 2.6-1.2 0-2-.1-2.8-.4l.1-1.9z"/>
  </g>
</svg>
