<svg xmlns="http://www.w3.org/2000/svg" viewBox="0 0 244.97 52.96"><defs><style>.a{fill:#f47932;}.b{fill:#231f20;}.c{fill:none;stroke:#231f20;stroke-width:0.5px;}.d{fill:#808285;}</style></defs><title>crc</title><path class="a" d="M0,30.42v-22H10.53c4.14,0,7.61,1.89,7.61,5.75,0,2.71-2.28,4.35-4.75,4.81v.06c2.92.4,5.29,2.25,5.29,5.39,0,6.39-8.15,6-8.37,6Zm9.65-4.26a2.38,2.38,0,1,0,.43-4.75h-4v4.75Zm-3.56-9,3.1,0c1.64,0,2.71-.64,2.71-2.31A2.26,2.26,0,0,0,9.4,12.71H6.09Z"/><path class="a" d="M35,22.2H30.52V17.94H41.08V29.69c-4.93.73-5.87,1.19-11.17,1.19-6.85-.21-11-4.56-11-11.44S23.07,8.2,29.92,8c5.32-.15,10.92.64,11,7H34.85c-.3-2.13-2-2.77-4-2.77-4.11,0-5.57,3.62-5.57,7.18,0,4.32,2.16,7.18,6.54,7.18A16.45,16.45,0,0,0,35,26.25Z"/><path class="b" d="M49.92,31a6.35,6.35,0,0,1-6.53-6.17h2.13c.06,3.37,2.55,4.34,5.5,4.34,2.46,0,5.29-1.43,5.29-4.22,0-2.19-1.58-3.22-3.43-3.83-3.55-1.19-9-2.31-9-7,0-3.83,3.52-5.92,7-5.92,2.89,0,6.65,1,7.14,5.23H55.9c-.06-2.7-2.52-3.4-4.77-3.4S46,11.11,46,13.78c0,6.23,12.4,3.4,12.4,11C58.42,29.52,54.32,31,49.92,31Z"/><path class="b" d="M62.69,8.58V22.77c.15,4,2.43,6.38,6,6.38s5.89-2.4,6-6.38V8.58h2V22.8c-.06,4.71-2.7,8.17-8,8.17s-8-3.46-8-8.17V8.58Z"/><path class="b" d="M80.32,28.6a1.37,1.37,0,0,1,.41,1,1.39,1.39,0,0,1-.41,1,1.42,1.42,0,0,1-2.42-1,1.37,1.37,0,0,1,.41-1,1.39,1.39,0,0,1,2,0Zm.21-.22a1.66,1.66,0,0,0-1.21-.5,1.68,1.68,0,0,0-1.18.46,1.64,1.64,0,0,0-.54,1.25,1.72,1.72,0,1,0,2.93-1.21Zm-1,1.08a.46.46,0,0,1-.27.07h-.19V29h.12a.83.83,0,0,1,.29,0,.22.22,0,0,1,.15.22A.26.26,0,0,1,79.52,29.47Zm-.46.41h.21l.17,0a.22.22,0,0,1,.14.14.91.91,0,0,1,0,.23,1.3,1.3,0,0,0,0,.26h.48l0-.05a.26.26,0,0,1,0-.06.54.54,0,0,1,0-.06v-.17a.51.51,0,0,0-.17-.43.66.66,0,0,0-.27-.11.63.63,0,0,0,.33-.13.42.42,0,0,0,.13-.35.48.48,0,0,0-.25-.46.9.9,0,0,0-.37-.1h-.92v1.9h.5Z"/><line class="c" x1="88.94" x2="88.94" y2="39.28"/><path class="b" d="M0,47H2.69c1.09,0,1.9.48,1.9,1.48a1.33,1.33,0,0,1-1,1.37v0c.78.16,1.18.58,1.18,1.29,0,1.4-1.23,1.69-2.28,1.69H0Zm1.56,2.31H2c.51,0,1-.13,1-.62s-.5-.59-1-.59H1.56Zm0,2.43H2c.57,0,1.16-.08,1.16-.68s-.61-.7-1.15-.7H1.56Z"/><path class="b" d="M11.53,46.91a2.7,2.7,0,0,1,2.93,3,2.72,2.72,0,0,1-2.93,3,2.72,2.72,0,0,1-2.93-3A2.7,2.7,0,0,1,11.53,46.91Zm0,4.9c.95,0,1.32-.91,1.32-1.87s-.38-1.87-1.32-1.87-1.32.86-1.32,1.87S10.58,51.81,11.53,51.81Z"/><path class="b" d="M18,47h1.59l.75,4.49h0L21.2,47h2L24,51.5h0L24.77,47h1.52L25,52.86H23l-.83-4.49h0l-.77,4.49h-2Z"/><path class="b" d="M30.09,47h1.56v4.69h2.41v1.16h-4Z"/><path class="b" d="M38,47h1.56v5.85H38Z"/><path class="b" d="M43.94,47h2l2,4h0l0-4h1.43v5.85H47.38l-2-4h0l.05,4H43.94Z"/><path class="b" d="M59,52.7a8.61,8.61,0,0,1-2.26.27c-1.56,0-3.36-.79-3.36-3s1.55-3.05,3.7-3.05a5.63,5.63,0,0,1,1.77.26l-.13,1.28a3,3,0,0,0-1.42-.38c-1.27,0-2.3.53-2.3,1.89a1.79,1.79,0,0,0,2,1.85,1.37,1.37,0,0,0,.55-.1V50.55H56.6V49.44H59Z"/><path class="b" d="M74.48,52.7a8.61,8.61,0,0,1-2.26.27c-1.56,0-3.36-.79-3.36-3s1.55-3.05,3.69-3.05a5.63,5.63,0,0,1,1.77.26l-.13,1.28a3,3,0,0,0-1.43-.38c-1.27,0-2.3.53-2.3,1.89a1.79,1.79,0,0,0,2,1.85,1.37,1.37,0,0,0,.55-.1V50.55h-.91V49.44h2.42Z"/><path class="b" d="M78.74,47h2.78c1,0,1.89.47,1.89,1.47A1.37,1.37,0,0,1,82.28,50v0c.5.13.54.58.83,1.29l.57,1.59H82.06l-.34-1.05c-.32-1-.52-1.26-1.1-1.26H80.3v2.31H78.74Zm1.56,2.43h.41c.5,0,1.14,0,1.14-.68s-.54-.65-1.14-.65H80.3Z"/><path class="b" d="M87.51,47h4.12v1.11H89.07v1.21h2.42v1.11H89.07v1.32h2.66v1.11H87.51Z"/><path class="b" d="M95.82,47h4.12v1.11H97.38v1.21H99.8v1.11H97.38v1.32H100v1.11H95.82Z"/><path class="b" d="M104.19,47h2l2,4h0l0-4h1.42v5.85h-1.93l-2-4h0l.05,4h-1.43Z"/><path class="b" d="M119.64,51.42a3.44,3.44,0,0,0,1.61.39c.49,0,1-.1,1-.57,0-1.09-2.77-.4-2.77-2.53,0-1.41,1.38-1.79,2.55-1.79a5,5,0,0,1,1.51.22l-.1,1.21a3.09,3.09,0,0,0-1.3-.27c-.39,0-1,0-1,.54,0,.95,2.77.31,2.77,2.42,0,1.52-1.28,1.93-2.57,1.93a6.06,6.06,0,0,1-1.74-.25Z"/><path class="b" d="M128.93,48.17h-1.44V47h4.44v1.16h-1.44v4.69h-1.56Z"/><path class="b" d="M136.89,47h1.91l2.26,5.85h-1.71l-.44-1.25h-2.2l-.46,1.25h-1.58Zm1,1.21h0l-.75,2.29h1.46Z"/><path class="b" d="M145.29,48.17h-1.44V47h4.44v1.16h-1.44v4.69h-1.56Z"/><path class="b" d="M152.09,47h4.12v1.11h-2.56v1.21h2.42v1.11h-2.42v1.32h2.65v1.11h-4.21Z"/><path class="b" d="M171.23,50.64c0,1.6-1,2.32-2.56,2.32s-2.57-.72-2.57-2.32V47h1.56v3.37c0,.77.21,1.43,1,1.43s1-.66,1-1.43V47h1.56Z"/><path class="b" d="M175.44,47h2l2,4h0l0-4h1.43v5.85h-1.94l-2-4h0l.05,4h-1.44Z"/><path class="b" d="M185.2,47h1.56v5.85H185.2Z"/><path class="b" d="M190.65,47h1.66l1.3,4.59h0l1.3-4.59h1.6l-2,5.85h-1.93Z"/><path class="b" d="M200.3,47h4.13v1.11h-2.57v1.21h2.42v1.11h-2.42v1.32h2.66v1.11H200.3Z"/><path class="b" d="M208.61,47h2.78c1,0,1.88.47,1.88,1.47A1.37,1.37,0,0,1,212.15,50v0c.5.13.54.58.83,1.29l.57,1.59h-1.63l-.34-1.05c-.32-1-.52-1.26-1.1-1.26h-.33v2.31h-1.56Zm1.56,2.43h.41c.5,0,1.14,0,1.14-.68s-.54-.65-1.14-.65h-.41Z"/><path class="b" d="M217.44,51.42a3.45,3.45,0,0,0,1.61.39c.5,0,1-.1,1-.57,0-1.09-2.77-.4-2.77-2.53,0-1.41,1.38-1.79,2.55-1.79a5,5,0,0,1,1.51.22l-.1,1.21a3.09,3.09,0,0,0-1.3-.27c-.39,0-1,0-1,.54,0,.95,2.77.31,2.77,2.42,0,1.52-1.28,1.93-2.58,1.93a6.06,6.06,0,0,1-1.74-.25Z"/><path class="b" d="M225.8,47h1.56v5.85H225.8Z"/><path class="b" d="M232.72,48.17h-1.44V47h4.44v1.16h-1.44v4.69h-1.56Z"/><path class="b" d="M241.27,50.66,239.1,47h1.79L242,49.36,243.18,47H245l-2.15,3.65v2.2h-1.56Z"/><path class="a" d="M110,18.24a13.13,13.13,0,0,1-3.52.48c-3.16,0-6.82-1.6-6.82-6.09,0-4.13,2.89-6.19,6.8-6.19a12.34,12.34,0,0,1,3.52.61l-.25,2.57a6.22,6.22,0,0,0-3.09-.83A3.61,3.61,0,0,0,103,12.63a3.63,3.63,0,0,0,4,3.74,8.33,8.33,0,0,0,3-.61Z"/><path class="a" d="M120.41,18.51h-2.79V16.88h0a3.36,3.36,0,0,1-3.23,1.84A3.21,3.21,0,0,1,111,15.18V9.65H114v4.28c0,1.67.58,2.23,1.41,2.23,1.26,0,1.9-.87,1.9-2.77V9.65h3.06Z"/><path class="a" d="M128.3,12.1a3.53,3.53,0,0,0-1-.1c-1.43,0-2.23,1-2.23,2.77v3.74H122V9.65h2.79v1.63h0a2.73,2.73,0,0,1,2.62-1.84,6.48,6.48,0,0,1,1,.1Z"/><path class="a" d="M135.51,12.1a3.52,3.52,0,0,0-1-.1c-1.43,0-2.23,1-2.23,2.77v3.74h-3.06V9.65H132v1.63h0a2.73,2.73,0,0,1,2.62-1.84,6.46,6.46,0,0,1,1,.1Z"/><path class="a" d="M139.81,8.21h-3.06V6h3.06Zm-3.06,1.44h3.06v8.86h-3.06Z"/><path class="a" d="M148.66,12.18a3.36,3.36,0,0,0-1.85-.49,2.28,2.28,0,0,0-2.35,2.45A2.39,2.39,0,0,0,147,16.47a4.19,4.19,0,0,0,1.9-.43l.07,2.28a8.25,8.25,0,0,1-2.5.39c-2.92,0-5.15-1.7-5.15-4.62s2.23-4.64,5.15-4.64a5.49,5.49,0,0,1,2.43.49Z"/><path class="a" d="M159.32,18.51h-2.79V16.88h0a3.36,3.36,0,0,1-3.23,1.84,3.21,3.21,0,0,1-3.38-3.54V9.65h3.06v4.28c0,1.67.58,2.23,1.41,2.23,1.26,0,1.9-.87,1.9-2.77V9.65h3.06Z"/><path class="a" d="M161.24,5.76h3.06V18.51h-3.06Z"/><path class="a" d="M175.66,18.51h-2.79V16.88h0a3.36,3.36,0,0,1-3.23,1.84,3.21,3.21,0,0,1-3.38-3.54V9.65h3.06v4.28c0,1.67.58,2.23,1.41,2.23,1.26,0,1.9-.87,1.9-2.77V9.65h3.06Z"/><path class="a" d="M177.22,9.65H180v1.63h0a3.36,3.36,0,0,1,3.23-1.84,2.79,2.79,0,0,1,2.77,1.7,3.51,3.51,0,0,1,3.14-1.7c2.55,0,3.13,1.44,3.13,3.84v5.22h-3.06V13.75c0-1-.36-1.75-1.22-1.75-1.09,0-1.73.87-1.73,2.77v3.74h-3.06V13.75c0-1-.36-1.75-1.22-1.75-1.09,0-1.73.87-1.73,2.77v3.74h-3.06Z"/><path class="d" d="M100,22.64h5.64c2.11,0,3.82,1,3.82,3a2.77,2.77,0,0,1-2.28,3v0c1,.27,1.09,1.17,1.68,2.62l1.16,3.23h-3.3l-.68-2.14c-.65-2-1.05-2.55-2.23-2.55h-.66v4.69H100Zm3.16,4.93H104c1,0,2.31,0,2.31-1.38,0-1.1-1.11-1.31-2.31-1.31h-.83Z"/><path class="d" d="M113.64,31c.17,1.22,1.11,1.7,2.6,1.7a5.73,5.73,0,0,0,2.7-.68v2.16a8.86,8.86,0,0,1-3.25.56c-2.92,0-5.15-1.72-5.15-4.64a4.39,4.39,0,0,1,4.74-4.62c3.28,0,4.47,2.33,4.47,5V31ZM117,29.24a1.62,1.62,0,0,0-1.7-1.85c-1.11,0-1.63.83-1.7,1.85Z"/><path class="d" d="M120.85,32.06a7.57,7.57,0,0,0,2.87.61c.63,0,1.24-.1,1.24-.71,0-1.5-4.35-.44-4.35-3.64,0-2,2-2.87,3.77-2.87a8.43,8.43,0,0,1,3.11.51l-.24,2.13a5,5,0,0,0-2.38-.59c-.66,0-1.41.12-1.41.61,0,1.38,4.55.29,4.55,3.65,0,2.36-2.12,3-4.13,3a10,10,0,0,1-3.21-.43Z"/><path class="d" d="M128.76,30.09c0-2.94,2.23-4.64,5.15-4.64s5.15,1.7,5.15,4.64-2.23,4.62-5.15,4.62S128.76,33,128.76,30.09Zm7.14,0c0-1.33-.58-2.5-2-2.5s-2,1.17-2,2.5.58,2.48,2,2.48S135.9,31.4,135.9,30.09Z"/><path class="d" d="M149.63,34.51h-2.79V32.88h0a3.36,3.36,0,0,1-3.23,1.84,3.21,3.21,0,0,1-3.38-3.54V25.65h3.06v4.28c0,1.67.58,2.23,1.41,2.23,1.26,0,1.9-.87,1.9-2.77V25.65h3.06Z"/><path class="d" d="M157.52,28.1a3.54,3.54,0,0,0-1-.1c-1.43,0-2.23,1-2.23,2.77v3.74H151.2V25.65H154v1.63h0a2.73,2.73,0,0,1,2.62-1.84,6.43,6.43,0,0,1,1,.1Z"/><path class="d" d="M165,28.18a3.35,3.35,0,0,0-1.85-.49,2.28,2.28,0,0,0-2.35,2.45,2.39,2.39,0,0,0,2.52,2.33,4.18,4.18,0,0,0,1.9-.43l.07,2.28a8.25,8.25,0,0,1-2.5.39c-2.92,0-5.15-1.7-5.15-4.62s2.23-4.64,5.15-4.64a5.5,5.5,0,0,1,2.43.49Z"/><path class="d" d="M168.93,31c.17,1.22,1.1,1.7,2.6,1.7a5.73,5.73,0,0,0,2.7-.68v2.16a8.85,8.85,0,0,1-3.25.56c-2.92,0-5.15-1.72-5.15-4.64a4.39,4.39,0,0,1,4.74-4.62c3.28,0,4.47,2.33,4.47,5V31Zm3.37-1.73a1.62,1.62,0,0,0-1.7-1.85c-1.1,0-1.63.83-1.7,1.85Z"/><path class="d" d="M191.22,34.24a13.16,13.16,0,0,1-3.52.48c-3.16,0-6.82-1.6-6.82-6.09,0-4.13,2.89-6.19,6.8-6.19a12.33,12.33,0,0,1,3.52.61l-.25,2.57a6.21,6.21,0,0,0-3.09-.83,3.61,3.61,0,0,0-3.71,3.84,3.63,3.63,0,0,0,4,3.74,8.32,8.32,0,0,0,3-.61Z"/><path class="d" d="M194.84,31c.17,1.22,1.1,1.7,2.6,1.7a5.72,5.72,0,0,0,2.7-.68v2.16a8.85,8.85,0,0,1-3.25.56c-2.92,0-5.15-1.72-5.15-4.64a4.39,4.39,0,0,1,4.74-4.62c3.28,0,4.47,2.33,4.47,5V31Zm3.37-1.73a1.62,1.62,0,0,0-1.7-1.85c-1.1,0-1.63.83-1.7,1.85Z"/><path class="d" d="M202.22,25.65H205v1.63h0a3.36,3.36,0,0,1,3.23-1.84A3.21,3.21,0,0,1,211.65,29v5.52h-3.06V30.22c0-1.67-.58-2.23-1.41-2.23-1.26,0-1.9.87-1.9,2.77v3.74h-3.06Z"/><path class="d" d="M212.43,25.65h1.8v-2l3-.94v2.92h2.14v2.14h-2.14v3.26c0,1.07.25,1.61,1.22,1.61a5.89,5.89,0,0,0,.94-.12l.1,2a14.77,14.77,0,0,1-1.92.17c-2.74,0-3.4-1.21-3.4-3.32v-3.6h-1.75Z"/><path class="d" d="M223.09,31c.17,1.22,1.1,1.7,2.6,1.7a5.73,5.73,0,0,0,2.7-.68v2.16a8.85,8.85,0,0,1-3.25.56c-2.92,0-5.15-1.72-5.15-4.64a4.39,4.39,0,0,1,4.74-4.62c3.28,0,4.47,2.33,4.47,5V31Zm3.37-1.73a1.62,1.62,0,0,0-1.7-1.85c-1.1,0-1.63.83-1.7,1.85Z"/><path class="d" d="M236.79,28.1a3.54,3.54,0,0,0-1-.1c-1.43,0-2.23,1-2.23,2.77v3.74h-3.06V25.65h2.79v1.63h0a2.73,2.73,0,0,1,2.62-1.84,6.43,6.43,0,0,1,1,.1Z"/></svg>