<svg xmlns="http://www.w3.org/2000/svg" viewBox="0 0 152 152"><path d="M15.4 60.5c1.2 10.2 2.4 17.9 3 25.6.4 5.8 2 7.9 8.5 6.6 8.5-1.7 17.3-2.4 26 .5 5.1 1.7 6.5 3.9 4.1 9-2.7 5.9-4.4 12.2-6.9 18.1-.9 2.2-2.4 4 .5 5.7 2.9 1.7 4.6.5 6.4-2.1 5.4-8.1 11.2-16 16.7-24.1 2-3 4.2-5.2 8-3.9 4.4 1.5 1.9 5 1.5 7.5-1.5 9.9-3.8 19.8-5 29.8-.7 6.3-3.3 8.2-9.4 7.4-16.9-2.1-33.2-6.5-48-14.9-16.4-9.4-25-36.3-18.6-57.2C12 36.6 36.6 21.1 66.4 11.6c3-1 4.7-.3 5.1 3.5 1.7 16.2 3.7 32.3 5.6 48.5.6 4.8-1.9 7.8-7.4 11.3 2.5-14.1-7.4-18.5-15.3-24.3-5.5-4-11.3-7.7-16.8-11.7-2.4-1.7-4.4-3-6.6 0-2.1 2.8.5 4.2 2 5.6 7.8 7.9 15.8 15.6 23.4 23.7 1.8 2 6.8 3.4 3.8 7.5-2.7 3.7-6.5 1.6-9.8.1-11.2-4.9-22.5-9.8-35-15.3zM115.8 86c6.2-2.8 13.4-2.6 20.2-4.3 2.7-.7 8.9 1.7 6.8-4.5-1.4-4.3-3.1-11.4-10.6-8.3-7.9 3.3-16.4 3.6-24.4 6.3-3.1 1-6 1.6-7.8-2.8-2-5 1.6-5.3 4.4-6.7 11-5.3 22.9-8.5 33.9-15.2-7.9-7.1-15.2-9.3-23.7-2.2-5.1 4.3-11.6 5.6-17.9 7.3-4 1.1-6.3-.8-8.4-3.3-2.7-3.3 1-4.8 2.6-6.1 9.1-7.3 7.2-18.4 9.4-27.9 1.3-5.9 3.6-6.1 7.8-4.4 29 11.8 44.9 37.8 43.7 69.5-.9 24.1-34.8 51.1-51.7 51.9-5.6.3-4.7-2.7-5-5.8-1-10.3 1.8-20.9-3.1-30.9-1.8-3.6 2.1-3.5 3.7-4.3 2.2-1.1 5.2-2.3 6.5 1.3 1.1 3 1.3 6.4 2.6 9.4 1.9 4.2 1.3 11.8 6.6 11.7 7.2-.2 14.5-3.8 20.1-8.9 2.8-2.6-.5-4.6-2.1-6.4-4.3-5.2-8.9-10.1-13.6-15.4z"/></svg>
