<svg xmlns="http://www.w3.org/2000/svg" viewBox="0 0 244.97 52.96"><defs><style>.a{fill:#f47932;}.b{fill:#231f20;}.c{fill:none;stroke:#231f20;stroke-width:0.5px;}.d{fill:#808285;}</style></defs><title>mlbssa</title><path class="a" d="M0,30.42v-22H10.53c4.14,0,7.61,1.89,7.61,5.75,0,2.71-2.28,4.35-4.75,4.81v.06c2.92.4,5.29,2.25,5.29,5.39,0,6.39-8.15,6-8.37,6Zm9.65-4.26a2.38,2.38,0,1,0,.43-4.75h-4v4.75Zm-3.56-9,3.1,0c1.64,0,2.71-.64,2.71-2.31A2.26,2.26,0,0,0,9.4,12.71H6.09Z"/><path class="a" d="M35,22.2H30.52V17.94H41.08V29.69c-4.93.73-5.87,1.19-11.17,1.19-6.85-.21-11-4.56-11-11.44S23.07,8.2,29.92,8c5.32-.15,10.92.64,11,7H34.85c-.3-2.13-2-2.77-4-2.77-4.11,0-5.57,3.62-5.57,7.18,0,4.32,2.16,7.18,6.54,7.18A16.45,16.45,0,0,0,35,26.25Z"/><path class="b" d="M49.92,31a6.35,6.35,0,0,1-6.53-6.17h2.13c.06,3.37,2.55,4.34,5.5,4.34,2.46,0,5.29-1.43,5.29-4.22,0-2.19-1.58-3.22-3.43-3.83-3.55-1.19-9-2.31-9-7,0-3.83,3.52-5.92,7-5.92,2.89,0,6.65,1,7.14,5.23H55.9c-.06-2.7-2.52-3.4-4.77-3.4S46,11.11,46,13.78c0,6.23,12.4,3.4,12.4,11C58.42,29.52,54.32,31,49.92,31Z"/><path class="b" d="M62.69,8.58V22.77c.15,4,2.43,6.38,6,6.38s5.89-2.4,6-6.38V8.58h2V22.8c-.06,4.71-2.7,8.17-8,8.17s-8-3.46-8-8.17V8.58Z"/><path class="b" d="M80.32,28.6a1.37,1.37,0,0,1,.41,1,1.39,1.39,0,0,1-.41,1,1.42,1.42,0,0,1-2.42-1,1.37,1.37,0,0,1,.41-1,1.39,1.39,0,0,1,2,0Zm.21-.22a1.66,1.66,0,0,0-1.21-.5,1.68,1.68,0,0,0-1.18.46,1.64,1.64,0,0,0-.54,1.25,1.72,1.72,0,1,0,2.93-1.21Zm-1,1.08a.46.46,0,0,1-.27.07h-.19V29h.12a.83.83,0,0,1,.29,0,.22.22,0,0,1,.15.22A.26.26,0,0,1,79.52,29.47Zm-.46.41h.21l.17,0a.22.22,0,0,1,.14.14.91.91,0,0,1,0,.23,1.3,1.3,0,0,0,0,.26h.48l0-.05a.26.26,0,0,1,0-.06.54.54,0,0,1,0-.06v-.17a.51.51,0,0,0-.17-.43.66.66,0,0,0-.27-.11.63.63,0,0,0,.33-.13.42.42,0,0,0,.13-.35.48.48,0,0,0-.25-.46.9.9,0,0,0-.37-.1h-.92v1.9h.5Z"/><line class="c" x1="88.94" x2="88.94" y2="39.28"/><path class="b" d="M0,47H2.69c1.09,0,1.9.48,1.9,1.48a1.33,1.33,0,0,1-1,1.37v0c.78.16,1.18.58,1.18,1.29,0,1.4-1.23,1.69-2.28,1.69H0Zm1.56,2.31H2c.51,0,1-.13,1-.62s-.5-.59-1-.59H1.56Zm0,2.43H2c.57,0,1.16-.08,1.16-.68s-.61-.7-1.15-.7H1.56Z"/><path class="b" d="M11.53,46.91a2.7,2.7,0,0,1,2.93,3,2.72,2.72,0,0,1-2.93,3,2.72,2.72,0,0,1-2.93-3A2.7,2.7,0,0,1,11.53,46.91Zm0,4.9c.95,0,1.32-.91,1.32-1.87s-.38-1.87-1.32-1.87-1.32.86-1.32,1.87S10.58,51.81,11.53,51.81Z"/><path class="b" d="M18,47h1.59l.75,4.49h0L21.2,47h2L24,51.5h0L24.77,47h1.52L25,52.86H23l-.83-4.49h0l-.77,4.49h-2Z"/><path class="b" d="M30.09,47h1.56v4.69h2.41v1.16h-4Z"/><path class="b" d="M38,47h1.56v5.85H38Z"/><path class="b" d="M43.94,47h2l2,4h0l0-4h1.43v5.85H47.38l-2-4h0l.05,4H43.94Z"/><path class="b" d="M59,52.7a8.61,8.61,0,0,1-2.26.27c-1.56,0-3.36-.79-3.36-3s1.55-3.05,3.7-3.05a5.63,5.63,0,0,1,1.77.26l-.13,1.28a3,3,0,0,0-1.42-.38c-1.27,0-2.3.53-2.3,1.89a1.79,1.79,0,0,0,2,1.85,1.37,1.37,0,0,0,.55-.1V50.55H56.6V49.44H59Z"/><path class="b" d="M74.48,52.7a8.61,8.61,0,0,1-2.26.27c-1.56,0-3.36-.79-3.36-3s1.55-3.05,3.69-3.05a5.63,5.63,0,0,1,1.77.26l-.13,1.28a3,3,0,0,0-1.43-.38c-1.27,0-2.3.53-2.3,1.89a1.79,1.79,0,0,0,2,1.85,1.37,1.37,0,0,0,.55-.1V50.55h-.91V49.44h2.42Z"/><path class="b" d="M78.74,47h2.78c1,0,1.89.47,1.89,1.47A1.37,1.37,0,0,1,82.28,50v0c.5.13.54.58.83,1.29l.57,1.59H82.06l-.34-1.05c-.32-1-.52-1.26-1.1-1.26H80.3v2.31H78.74Zm1.56,2.43h.41c.5,0,1.14,0,1.14-.68s-.54-.65-1.14-.65H80.3Z"/><path class="b" d="M87.51,47h4.12v1.11H89.07v1.21h2.42v1.11H89.07v1.32h2.66v1.11H87.51Z"/><path class="b" d="M95.82,47h4.12v1.11H97.38v1.21H99.8v1.11H97.38v1.32H100v1.11H95.82Z"/><path class="b" d="M104.19,47h2l2,4h0l0-4h1.42v5.85h-1.93l-2-4h0l.05,4h-1.43Z"/><path class="b" d="M119.64,51.42a3.44,3.44,0,0,0,1.61.39c.49,0,1-.1,1-.57,0-1.09-2.77-.4-2.77-2.53,0-1.41,1.38-1.79,2.55-1.79a5,5,0,0,1,1.51.22l-.1,1.21a3.09,3.09,0,0,0-1.3-.27c-.39,0-1,0-1,.54,0,.95,2.77.31,2.77,2.42,0,1.52-1.28,1.93-2.57,1.93a6.06,6.06,0,0,1-1.74-.25Z"/><path class="b" d="M128.93,48.17h-1.44V47h4.44v1.16h-1.44v4.69h-1.56Z"/><path class="b" d="M136.89,47h1.91l2.26,5.85h-1.71l-.44-1.25h-2.2l-.46,1.25h-1.58Zm1,1.21h0l-.75,2.29h1.46Z"/><path class="b" d="M145.29,48.17h-1.44V47h4.44v1.16h-1.44v4.69h-1.56Z"/><path class="b" d="M152.09,47h4.12v1.11h-2.56v1.21h2.42v1.11h-2.42v1.32h2.65v1.11h-4.21Z"/><path class="b" d="M171.23,50.64c0,1.6-1,2.32-2.56,2.32s-2.57-.72-2.57-2.32V47h1.56v3.37c0,.77.21,1.43,1,1.43s1-.66,1-1.43V47h1.56Z"/><path class="b" d="M175.44,47h2l2,4h0l0-4h1.43v5.85h-1.94l-2-4h0l.05,4h-1.44Z"/><path class="b" d="M185.2,47h1.56v5.85H185.2Z"/><path class="b" d="M190.65,47h1.66l1.3,4.59h0l1.3-4.59h1.6l-2,5.85h-1.93Z"/><path class="b" d="M200.3,47h4.13v1.11h-2.57v1.21h2.42v1.11h-2.42v1.32h2.66v1.11H200.3Z"/><path class="b" d="M208.61,47h2.78c1,0,1.88.47,1.88,1.47A1.37,1.37,0,0,1,212.15,50v0c.5.13.54.58.83,1.29l.57,1.59h-1.63l-.34-1.05c-.32-1-.52-1.26-1.1-1.26h-.33v2.31h-1.56Zm1.56,2.43h.41c.5,0,1.14,0,1.14-.68s-.54-.65-1.14-.65h-.41Z"/><path class="b" d="M217.44,51.42a3.45,3.45,0,0,0,1.61.39c.5,0,1-.1,1-.57,0-1.09-2.77-.4-2.77-2.53,0-1.41,1.38-1.79,2.55-1.79a5,5,0,0,1,1.51.22l-.1,1.21a3.09,3.09,0,0,0-1.3-.27c-.39,0-1,0-1,.54,0,.95,2.77.31,2.77,2.42,0,1.52-1.28,1.93-2.58,1.93a6.06,6.06,0,0,1-1.74-.25Z"/><path class="b" d="M225.8,47h1.56v5.85H225.8Z"/><path class="b" d="M232.72,48.17h-1.44V47h4.44v1.16h-1.44v4.69h-1.56Z"/><path class="b" d="M241.27,50.66,239.1,47h1.79L242,49.36,243.18,47H245l-2.15,3.65v2.2h-1.56Z"/><path class="a" d="M98.71,6.9h3.81l1.92,6h0l2-6h3.67V16h-2.37l0-7h0l-2.31,7h-2.22L101,9h0l.05,7H98.71Z"/><path class="a" d="M118.48,16h-2.13V14.73h0a2.57,2.57,0,0,1-2.47,1.4,2.45,2.45,0,0,1-2.59-2.7V9.2h2.34v3.28c0,1.27.44,1.7,1.08,1.7,1,0,1.46-.66,1.46-2.12V9.2h2.34Z"/><path class="a" d="M119.41,14.1a5.79,5.79,0,0,0,2.2.47c.48,0,.95-.08.95-.55,0-1.14-3.33-.34-3.33-2.78,0-1.56,1.53-2.2,2.89-2.2a6.43,6.43,0,0,1,2.38.39l-.18,1.63a3.81,3.81,0,0,0-1.82-.46c-.51,0-1.08.09-1.08.47,0,1.05,3.48.22,3.48,2.8,0,1.81-1.62,2.26-3.16,2.26a7.66,7.66,0,0,1-2.46-.33Z"/><path class="a" d="M128.27,8.1h-2.34V6.38h2.34Zm-2.34,1.1h2.34V16h-2.34Z"/><path class="a" d="M134.91,11.14a2.57,2.57,0,0,0-1.42-.38,1.74,1.74,0,0,0-1.79,1.87,1.83,1.83,0,0,0,1.92,1.78,3.2,3.2,0,0,0,1.46-.33l.05,1.74a6.32,6.32,0,0,1-1.91.3c-2.24,0-3.94-1.3-3.94-3.54S131,9,133.22,9a4.2,4.2,0,0,1,1.86.38Z"/><path class="a" d="M139.42,6.9h2.42v7.28h3.74V16h-6.16Z"/><path class="a" d="M148.75,8.1h-2.34V6.38h2.34Zm-2.34,1.1h2.34V16h-2.34Z"/><path class="a" d="M150,6.23h2.35v3.85h0a2.77,2.77,0,0,1,2.33-1c1.87,0,2.9,1.78,2.9,3.42,0,2-1.08,3.67-3.09,3.67a2.51,2.51,0,0,1-2.33-1.37h0V16H150Zm3.77,4.62c-.86,0-1.43.75-1.43,1.77a1.59,1.59,0,0,0,1.43,1.73c.88,0,1.42-.74,1.42-1.82A1.5,1.5,0,0,0,153.81,10.84Z"/><path class="a" d="M163.22,11.07a2.71,2.71,0,0,0-.79-.08c-1.09,0-1.7.79-1.7,2.12V16h-2.34V9.2h2.13v1.25h0a2.09,2.09,0,0,1,2-1.4,5,5,0,0,1,.79.08Z"/><path class="a" d="M168.2,16c0-.36-.05-.71-.05-1.07h0A2.32,2.32,0,0,1,166,16.13c-1.34,0-2.54-.66-2.54-2.13,0-2.07,2.25-2.31,3.5-2.31a6.88,6.88,0,0,1,1.09.09c0-.92-.7-1.17-1.55-1.17a4.41,4.41,0,0,0-2.16.51l0-1.59A7,7,0,0,1,167,9c1.73,0,3.22.74,3.22,2.81v2.52a8.26,8.26,0,0,0,.13,1.6Zm-1.61-1.4A1.52,1.52,0,0,0,168,13c-.3,0-.64,0-1,0-.79,0-1.42.25-1.42.9C165.63,14.3,166,14.57,166.59,14.57Z"/><path class="a" d="M176.16,11.07a2.71,2.71,0,0,0-.79-.08c-1.09,0-1.7.79-1.7,2.12V16h-2.34V9.2h2.13v1.25h0a2.09,2.09,0,0,1,2-1.4,5,5,0,0,1,.79.08Z"/><path class="a" d="M177,16.92a2.79,2.79,0,0,0,.92.14,1.19,1.19,0,0,0,1.18-.94L176.34,9.2h2.52l1.46,4.42h0l1.39-4.42h2.34l-2.48,6.31c-.66,1.7-1.17,3.35-3.32,3.35a6.84,6.84,0,0,1-1.46-.16Z"/><path class="d" d="M192.8,16c0-.36-.05-.71-.05-1.07h0a2.32,2.32,0,0,1-2.14,1.22c-1.34,0-2.54-.66-2.54-2.13,0-2.07,2.25-2.31,3.5-2.31a6.88,6.88,0,0,1,1.09.09c0-.92-.7-1.17-1.55-1.17a4.41,4.41,0,0,0-2.16.51l0-1.59a7,7,0,0,1,2.7-.48c1.73,0,3.22.74,3.22,2.81v2.52a8.26,8.26,0,0,0,.13,1.6Zm-1.61-1.4a1.52,1.52,0,0,0,1.44-1.6c-.3,0-.64,0-1,0-.79,0-1.42.25-1.42.9C190.22,14.3,190.64,14.57,191.18,14.57Z"/><path class="d" d="M195.92,9.2h2.13v1.25h0A2.57,2.57,0,0,1,200.55,9a2.45,2.45,0,0,1,2.59,2.7V16h-2.34V12.7c0-1.27-.44-1.7-1.08-1.7-1,0-1.46.66-1.46,2.12V16h-2.34Z"/><path class="d" d="M211.48,16h-2.16V14.77h0A2.51,2.51,0,0,1,207,16.13c-2,0-3.09-1.66-3.09-3.67,0-1.66,1-3.42,2.9-3.42a2.7,2.7,0,0,1,2.33,1h0V6.23h2.35Zm-3.77-1.64a1.59,1.59,0,0,0,1.43-1.73c0-1-.57-1.77-1.43-1.77a1.5,1.5,0,0,0-1.42,1.68C206.29,13.6,206.83,14.34,207.71,14.34Z"/><path class="d" d="M216.13,6.9h4.17c1.69,0,3,.74,3,2.3a2.06,2.06,0,0,1-1.6,2.12v0c1.21.25,1.83.9,1.83,2,0,2.17-1.91,2.63-3.54,2.63h-3.82Zm2.42,3.59h.68c.79,0,1.61-.19,1.61-1s-.78-.91-1.59-.91h-.7Zm0,3.77h.71c.88,0,1.81-.13,1.81-1.05s-.95-1.08-1.78-1.08h-.74Z"/><path class="d" d="M227,8.1h-2.34V6.38H227Zm-2.34,1.1H227V16h-2.34Z"/><path class="d" d="M228.59,6.23h2.34V16h-2.34Z"/><path class="d" d="M232.54,6.23h2.34V16h-2.34Z"/><path class="d" d="M98.8,28.74a5.32,5.32,0,0,0,2.5.6c.77,0,1.5-.16,1.5-.88,0-1.69-4.29-.62-4.29-3.93,0-2.18,2.13-2.78,4-2.78a7.67,7.67,0,0,1,2.34.34L104.63,24a4.87,4.87,0,0,0-2-.42c-.61,0-1.63.05-1.63.84,0,1.47,4.29.48,4.29,3.76,0,2.35-2,3-4,3a9.52,9.52,0,0,1-2.7-.39Z"/><path class="d" d="M111.51,26.14a2.57,2.57,0,0,0-1.42-.38,1.74,1.74,0,0,0-1.79,1.87,1.82,1.82,0,0,0,1.92,1.78,3.22,3.22,0,0,0,1.46-.32l.05,1.74a6.33,6.33,0,0,1-1.91.3c-2.24,0-3.94-1.3-3.94-3.54s1.7-3.55,3.94-3.55a4.21,4.21,0,0,1,1.86.38Z"/><path class="d" d="M112.32,21.23h2.34v4h0A2.67,2.67,0,0,1,116.94,24a2.46,2.46,0,0,1,2.59,2.71V31h-2.34V27.7c0-1.27-.44-1.7-1.08-1.7-1,0-1.46.66-1.46,2.12V31h-2.34Z"/><path class="d" d="M127.81,31h-2.13V29.73h0a2.57,2.57,0,0,1-2.47,1.4,2.46,2.46,0,0,1-2.59-2.7V24.2h2.34v3.28c0,1.27.44,1.7,1.08,1.7,1,0,1.46-.66,1.46-2.12V24.2h2.34Z"/><path class="d" d="M133.71,26.07a2.73,2.73,0,0,0-.79-.08c-1.09,0-1.7.79-1.7,2.12V31h-2.34V24.2H131v1.25h0a2.09,2.09,0,0,1,2-1.4,5,5,0,0,1,.79.08Z"/><path class="d" d="M134.26,21.23h2.34V27h0l2-2.85h2.56l-2.35,3.11L141.33,31H138.5l-1.87-3.35h0V31h-2.34Z"/><path class="a" d="M145.54,28.74a5.32,5.32,0,0,0,2.5.6c.77,0,1.5-.16,1.5-.88,0-1.69-4.29-.62-4.29-3.93,0-2.18,2.13-2.78,4-2.78a7.67,7.67,0,0,1,2.34.34L151.38,24a4.87,4.87,0,0,0-2-.42c-.61,0-1.62.05-1.62.84,0,1.47,4.29.48,4.29,3.76,0,2.35-2,3-4,3a9.52,9.52,0,0,1-2.7-.39Z"/><path class="a" d="M152.63,27.6c0-2.25,1.7-3.55,3.94-3.55s3.94,1.3,3.94,3.55-1.7,3.54-3.94,3.54S152.63,29.83,152.63,27.6Zm5.46,0c0-1-.44-1.91-1.52-1.91s-1.52.9-1.52,1.91.44,1.9,1.52,1.9S158.09,28.6,158.09,27.6Z"/><path class="a" d="M168.46,31h-2.13V29.73h0a2.57,2.57,0,0,1-2.47,1.4,2.45,2.45,0,0,1-2.59-2.7V24.2h2.34v3.28c0,1.27.44,1.7,1.08,1.7,1,0,1.46-.66,1.46-2.12V24.2h2.34Z"/><path class="a" d="M169.53,24.2h2.13v1.25h0a2.57,2.57,0,0,1,2.47-1.4,2.45,2.45,0,0,1,2.59,2.71V31H174.4V27.7c0-1.27-.44-1.7-1.08-1.7-1,0-1.46.66-1.46,2.12V31h-2.34Z"/><path class="a" d="M185.09,31h-2.16V29.77h0a2.5,2.5,0,0,1-2.33,1.37c-2,0-3.09-1.66-3.09-3.67,0-1.66,1-3.42,2.9-3.42a2.7,2.7,0,0,1,2.33,1h0V21.23h2.35Zm-3.77-1.64a1.59,1.59,0,0,0,1.43-1.73c0-1-.57-1.77-1.43-1.77a1.5,1.5,0,0,0-1.42,1.68C179.9,28.6,180.44,29.34,181.32,29.34Z"/><path class="a" d="M192.51,21.9h3L199,31h-2.65L195.64,29h-3.41L191.52,31h-2.46ZM194,23.77h0l-1.17,3.55h2.28Z"/><path class="a" d="M204.25,26.07a2.73,2.73,0,0,0-.79-.08c-1.09,0-1.7.79-1.7,2.12V31h-2.34V24.2h2.13v1.25h0a2.09,2.09,0,0,1,2-1.4,5,5,0,0,1,.79.08Z"/><path class="a" d="M209.87,26.14a2.57,2.57,0,0,0-1.42-.38,1.74,1.74,0,0,0-1.79,1.87,1.82,1.82,0,0,0,1.92,1.78,3.21,3.21,0,0,0,1.46-.32l.05,1.74a6.33,6.33,0,0,1-1.91.3c-2.24,0-3.94-1.3-3.94-3.54s1.7-3.55,3.94-3.55a4.21,4.21,0,0,1,1.86.38Z"/><path class="a" d="M210.68,21.23H213v4h0A2.67,2.67,0,0,1,215.3,24a2.45,2.45,0,0,1,2.59,2.71V31h-2.34V27.7c0-1.27-.44-1.7-1.08-1.7-1,0-1.46.66-1.46,2.12V31h-2.34Z"/><path class="a" d="M221.53,23.1h-2.34V21.38h2.34Zm-2.34,1.11h2.34V31h-2.34Z"/><path class="a" d="M222.23,24.2h2.51l1.4,4.82h0l1.42-4.82h2.33L227.41,31h-2.66Z"/><path class="a" d="M232.42,28.27c.13.94.84,1.3,2,1.3a4.38,4.38,0,0,0,2.07-.52V30.7a6.79,6.79,0,0,1-2.48.43c-2.24,0-3.94-1.31-3.94-3.55A3.36,3.36,0,0,1,233.68,24c2.51,0,3.42,1.78,3.42,3.8v.43ZM235,26.95a1.24,1.24,0,0,0-1.3-1.42c-.84,0-1.25.64-1.3,1.42Z"/><path class="a" d="M237.81,29.1a5.81,5.81,0,0,0,2.2.47c.48,0,.95-.08.95-.55,0-1.14-3.33-.34-3.33-2.78,0-1.56,1.53-2.2,2.89-2.2a6.45,6.45,0,0,1,2.38.39l-.18,1.63a3.82,3.82,0,0,0-1.82-.45c-.51,0-1.08.09-1.08.47,0,1.05,3.48.22,3.48,2.8,0,1.81-1.62,2.26-3.16,2.26a7.66,7.66,0,0,1-2.46-.33Z"/><text></text><text></text></svg>