<svg xmlns="http://www.w3.org/2000/svg" viewBox="0 0 244.8 53"><defs/><path fill="#f47932" d="M0 30.4v-22h10.5c4.1 0 7.6 1.9 7.6 5.8 0 2.7-2.3 4.4-4.7 4.8v.1c2.9.4 5.3 2.3 5.3 5.4 0 6.4-8.2 6-8.4 6H0zm9.6-4.2a2.35 2.35 0 002.6-2.3 2.49 2.49 0 00-2.2-2.5H6v4.7h3.6zm-3.5-9h3.1c1.6 0 2.7-.6 2.7-2.3a2.29 2.29 0 00-2.5-2.1H6.1zM35 22.2h-4.5V18h10.6v11.7c-4.9.7-5.9 1.2-11.2 1.2-6.8-.2-11-4.6-11-11.4s4.2-11.2 11-11.4c5.3-.2 10.9.6 11 7h-6.1c-.3-2.1-2-2.8-4-2.8-4.1 0-5.6 3.6-5.6 7.2 0 4.3 2.2 7.2 6.5 7.2a15.54 15.54 0 003.2-.4v-4.1z"/><path d="M49.9 31a6.36 6.36 0 01-6.5-6.2h2.1c.1 3.4 2.6 4.3 5.5 4.3 2.5 0 5.3-1.4 5.3-4.2 0-2.2-1.6-3.2-3.4-3.8-3.6-1.2-9-2.3-9-7 0-3.8 3.5-5.9 7-5.9 2.9 0 6.7 1 7.1 5.2h-2.1c-.1-2.7-2.5-3.4-4.8-3.4S46 11.2 46 13.8c0 6.2 12.4 3.4 12.4 11 0 4.7-4.1 6.2-8.5 6.2zM62.7 8.6v14.2c.2 4 2.4 6.4 6 6.4s5.9-2.4 6-6.4V8.6h2v14.2c-.1 4.7-2.7 8.2-8 8.2s-8-3.5-8-8.2V8.6zM80.3 28.6a1.45 1.45 0 11-1-.4 1.28 1.28 0 011 .4zm.2-.2a1.66 1.66 0 00-1.2-.5 1.85 1.85 0 00-1.2.5 1.54 1.54 0 00-.5 1.3 1.7 1.7 0 003.4 0 1.73 1.73 0 00-.5-1.3zm-1 1.1c-.1 0-.2.1-.3.1H79V29h.4a.22.22 0 01.2.2c0 .2 0 .2-.1.3zm-.5.4h.4a.1.1 0 01.1.1v.5h.5V30a.52.52 0 00-.2-.4c-.1 0-.2-.1-.3-.1.1 0 .2-.1.3-.1a.37.37 0 00.1-.3.55.55 0 00-.3-.5c-.1-.1-.2-.1-.4-.1h-.9v1.9h.5v-.5z"/><path fill="none" stroke="#000" stroke-width=".5" d="M88.9 0v39.3"/><path d="M0 47h2.7c1.1 0 1.9.5 1.9 1.5a1.5 1.5 0 01-1 1.4c.8.2 1.2.6 1.2 1.3 0 1.4-1.2 1.7-2.3 1.7H0V47zm1.5 2.4h.4c.5 0 1-.1 1-.6s-.5-.6-1-.6h-.5v1.2zm0 2.4H2c.6 0 1.2-.1 1.2-.7s-.6-.7-1.1-.7h-.5v1.4zM11.5 46.9a2.66 2.66 0 012.9 3 2.66 2.66 0 01-2.9 3 2.71 2.71 0 01-2.9-3 2.71 2.71 0 012.9-3zm0 4.9c.9 0 1.3-.9 1.3-1.9s-.4-1.9-1.3-1.9-1.3.9-1.3 1.9.4 1.9 1.3 1.9zM18 47h1.6l.8 4.5.8-4.5h2l.8 4.5.8-4.5h1.5L25 52.9h-2l-.8-4.5-.8 4.5h-2zM30.1 47h1.6v4.7h2.4v1.2h-4zM38 47h1.6v5.9H38zM43.9 47h2l2 4v-4h1.4v5.9h-1.9l-2-4 .1 4h-1.4V47zM59 52.7a7.2 7.2 0 01-2.3.3c-1.6 0-3.4-.8-3.4-3s1.6-3.1 3.7-3.1a4.23 4.23 0 011.8.3l-.1 1.3a3 3 0 00-1.4-.4c-1.3 0-2.3.5-2.3 1.9 0 1.2.8 1.8 2 1.8a1.27 1.27 0 00.6-.1v-1.2h-.9v-1.1h2.4v3.3zM74.5 52.7a7.2 7.2 0 01-2.3.3c-1.6 0-3.4-.8-3.4-3s1.6-3.1 3.7-3.1a4.23 4.23 0 011.8.3l-.1 1.3a3 3 0 00-1.4-.4c-1.3 0-2.3.5-2.3 1.9 0 1.2.8 1.8 2 1.8a1.27 1.27 0 00.6-.1v-1.2h-.9v-1.1h2.4v3.3zM78.7 47h2.8c1 0 1.9.5 1.9 1.5a1.43 1.43 0 01-1.1 1.5c.5.1.5.6.8 1.3l.6 1.6h-1.6l-.3-1.1c-.3-1-.5-1.3-1.1-1.3h-.3v2.3h-1.6V47zm1.6 2.5h.4c.5 0 1.1 0 1.1-.7 0-.5-.5-.6-1.1-.6h-.4zM87.5 47h4.1v1.1H89v1.2h2.4v1.1H89v1.3h2.7v1.1h-4.2zM95.8 47h4.1v1.1h-2.5v1.2h2.4v1.1h-2.4v1.3h2.7v1.1h-4.2V47zM104.2 47h2l2 4v-4h1.4v5.9h-1.9l-2-4 .1 4h-1.4V47zM119.6 51.4a3.77 3.77 0 001.6.4c.5 0 1-.1 1-.6 0-1.1-2.8-.4-2.8-2.5 0-1.4 1.4-1.8 2.5-1.8a6.05 6.05 0 011.5.2l-.1 1.2a3.08 3.08 0 00-1.3-.3c-.4 0-1 0-1 .5 0 .9 2.8.3 2.8 2.4 0 1.5-1.3 1.9-2.6 1.9a5.08 5.08 0 01-1.7-.3zM128.9 48.2h-1.4V47h4.4v1.2h-1.4v4.7h-1.6zM136.9 47h1.9l2.3 5.9h-1.7l-.4-1.2h-2.2l-.5 1.2h-1.6zm.9 1.2l-.8 2.3h1.5zM145.3 48.2h-1.4V47h4.4v1.2h-1.4v4.7h-1.6zM152.1 47h4.1v1.1h-2.6v1.2h2.4v1.1h-2.4v1.3h2.7v1.1h-4.2zM171.2 50.7c0 1.6-1 2.3-2.6 2.3s-2.6-.7-2.6-2.3V47h1.6v3.4c0 .8.2 1.4 1 1.4s1-.7 1-1.4V47h1.6zM175.4 47h2l2 4v-4h1.4v5.9h-1.9l-2-4 .1 4h-1.6zM185.2 47h1.6v5.9h-1.6zM190.6 47h1.7l1.3 4.6 1.3-4.6h1.6l-2 5.9h-1.9zM200.3 47h4.1v1.1h-2.6v1.2h2.4v1.1h-2.4v1.3h2.7v1.1h-4.2zM208.6 47h2.8c1 0 1.9.5 1.9 1.5a1.43 1.43 0 01-1.1 1.5c.5.1.5.6.8 1.3l.6 1.6H212l-.3-1.1c-.3-1-.5-1.3-1.1-1.3h-.3v2.3h-1.6V47zm1.5 2.5h.4c.5 0 1.1 0 1.1-.7 0-.5-.5-.6-1.1-.6h-.4zM217.4 51.4a3.77 3.77 0 001.6.4c.5 0 1-.1 1-.6 0-1.1-2.8-.4-2.8-2.5 0-1.4 1.4-1.8 2.5-1.8a6.05 6.05 0 011.5.2l-.1 1.2a3.08 3.08 0 00-1.3-.3c-.4 0-1 0-1 .5 0 .9 2.8.3 2.8 2.4 0 1.5-1.3 1.9-2.6 1.9a5.08 5.08 0 01-1.7-.3zM225.8 47h1.6v5.9h-1.6zM232.7 48.2h-1.4V47h4.4v1.2h-1.4v4.7h-1.6zM241.2 50.7l-2.2-3.6h1.8l1.1 2.3 1.1-2.3h1.8l-2.1 3.6v2.2h-1.6v-2.2z"/><path fill="#808285" d="M106.3 13.3c0 2.5-1.6 3.6-4 3.6s-4-1.1-4-3.6V7.7h2.4v5.2c0 1.2.3 2.2 1.6 2.2s1.6-1 1.6-2.2V7.7h2.4zM107.7 7.7h3.1l3.1 6.2V7.7h2.2v9.1h-3l-3.2-6.2.1 6.2h-2.2V7.7zM117.7 7.7h2.4v9.1h-2.4zM121 7.7h2.6l2 7.1 2-7.1h2.5l-3.1 9.1h-3zM130.9 7.7h6.4v1.7h-4v1.9h3.8V13h-3.8v2.1h4.1v1.7h-6.5zM138.6 7.7h4.3c1.6 0 2.9.7 2.9 2.3a2.19 2.19 0 01-1.7 2.3c.8.2.8.9 1.3 2l.9 2.5h-2.5l-.5-1.6c-.5-1.6-.8-1.9-1.7-1.9h-.5v3.6h-2.4V7.7zm2.4 3.7h.6c.8 0 1.8 0 1.8-1.1 0-.8-.8-1-1.8-1h-.6zM147.2 14.5a5.75 5.75 0 002.5.6c.8 0 1.5-.2 1.5-.9 0-1.7-4.3-.6-4.3-3.9 0-2.2 2.1-2.8 4-2.8a7.55 7.55 0 012.3.3l-.2 1.9a4.48 4.48 0 00-2-.4c-.6 0-1.6.1-1.6.8 0 1.5 4.3.5 4.3 3.8 0 2.4-2 3-4 3a8.42 8.42 0 01-2.7-.4zM155 7.7h2.4v9.1H155zM160.6 9.5h-2.2V7.7h6.9v1.8h-2.2v7.3h-2.4V9.5zM168.7 13.3l-3.4-5.7h2.8l1.8 3.6 1.8-3.6h2.8l-3.3 5.7v3.4h-2.4v-3.4zM179.1 7.7h2.4V15h3.7v1.8H179V7.7zM186.2 7.7h2.4v9.1h-2.4zM190.2 7.7h4.2c1.7 0 3 .7 3 2.3a2.05 2.05 0 01-1.6 2.1 1.89 1.89 0 011.8 2c0 2.2-1.9 2.6-3.5 2.6h-3.8v-9zm2.4 3.6h.7c.8 0 1.6-.2 1.6-1s-.8-.9-1.6-.9h-.7zm0 3.7h.7c.9 0 1.8-.1 1.8-1.1s-.9-1.1-1.8-1.1h-.7zM198.7 7.7h4.3c1.6 0 2.9.7 2.9 2.3a2.19 2.19 0 01-1.7 2.3c.8.2.8.9 1.3 2l.9 2.5h-2.5l-.5-1.6c-.5-1.6-.8-1.9-1.7-1.9h-.5v3.6h-2.4V7.7zm2.4 3.7h.6c.8 0 1.8 0 1.8-1.1 0-.8-.8-1-1.8-1h-.6zM209.9 7.7h3l3.5 9.1h-2.7l-.7-1.9h-3.4l-.7 1.9h-2.5zm1.5 1.8l-1.2 3.5h2.3zM217.1 7.7h4.3c1.6 0 2.9.7 2.9 2.3a2.19 2.19 0 01-1.7 2.3c.8.2.8.9 1.3 2l.9 2.5h-2.5l-.5-1.6c-.5-1.6-.8-1.9-1.7-1.9h-.5v3.6h-2.4V7.7zm2.4 3.7h.6c.8 0 1.8 0 1.8-1.1 0-.8-.8-1-1.8-1h-.6zM225.7 7.7h2.4v9.1h-2.4zM229.7 7.7h6.4v1.7h-4v1.9h3.8V13h-3.8v2.1h4.1v1.7h-6.5zM237.5 14.5a5.75 5.75 0 002.5.6c.8 0 1.5-.2 1.5-.9 0-1.7-4.3-.6-4.3-3.9 0-2.2 2.1-2.8 4-2.8a7.55 7.55 0 012.3.3l-.2 1.9a4.48 4.48 0 00-2-.4c-.6 0-1.6.1-1.6.8 0 1.5 4.3.5 4.3 3.8 0 2.4-2 3-4 3a8.42 8.42 0 01-2.7-.4z"/><path fill="#f47932" d="M98.5 28.5a5.75 5.75 0 002.5.6c.8 0 1.5-.2 1.5-.9 0-1.7-4.3-.6-4.3-3.9 0-2.2 2.1-2.8 4-2.8a7.55 7.55 0 012.3.3l-.2 1.9a4.48 4.48 0 00-2-.4c-.6 0-1.6.1-1.6.8 0 1.5 4.3.5 4.3 3.8 0 2.4-2 3-4 3a8.42 8.42 0 01-2.7-.4zM106.1 21.7h2.9c2.8 0 4.1.9 4.1 3 0 1.8-1.3 2.9-3.6 2.9h-.9v3.2h-2.4v-9.1zm2.4 4.2h.6c.8 0 1.5-.3 1.5-1.2s-.7-1.2-1.5-1.2h-.6zM113.9 21.7h6.4v1.7h-4v1.9h3.8V27h-3.8v2.1h4.1v1.7h-6.5zM129.3 30.5a9.06 9.06 0 01-2.7.4c-2.4 0-5.2-1.2-5.2-4.7 0-3.2 2.2-4.7 5.2-4.7a8.57 8.57 0 012.7.5l-.2 2a5 5 0 00-2.4-.6 2.7 2.7 0 00-2.8 2.9 2.81 2.81 0 003 2.9 5.93 5.93 0 002.3-.5zM130.3 21.7h2.4v9.1h-2.4zM137.1 21.7h3l3.5 9.1h-2.7l-.7-1.9h-3.4l-.7 1.9h-2.5zm1.4 1.8l-1.2 3.5h2.3zM144.3 21.7h2.4V29h3.7v1.8h-6.2v-9.1zM162.7 30.5a9.06 9.06 0 01-2.7.4c-2.4 0-5.2-1.2-5.2-4.7 0-3.2 2.2-4.7 5.2-4.7a8.57 8.57 0 012.7.5l-.2 2a5 5 0 00-2.4-.6 2.7 2.7 0 00-2.8 2.9 2.81 2.81 0 003 2.9 5.93 5.93 0 002.3-.5zM167.8 21.5c3 0 4.5 1.8 4.5 4.7s-1.6 4.7-4.5 4.7-4.6-1.8-4.6-4.7 1.6-4.7 4.6-4.7zm0 7.6c1.5 0 2.1-1.4 2.1-2.9s-.6-2.9-2.1-2.9-2.1 1.3-2.1 2.9.6 2.9 2.1 2.9zM173.5 21.7h2.4V29h3.7v1.8h-6.2v-9.1zM180.5 21.7h2.4V29h3.7v1.8h-6.2v-9.1zM187.5 21.7h6.4v1.7h-4v1.9h3.8V27h-3.8v2.1h4.1v1.7h-6.5zM202.9 30.5a9.06 9.06 0 01-2.7.4c-2.4 0-5.2-1.2-5.2-4.7 0-3.2 2.2-4.7 5.2-4.7a8.57 8.57 0 012.7.5l-.2 2a5 5 0 00-2.4-.6 2.7 2.7 0 00-2.8 2.9 2.81 2.81 0 003 2.9 5.93 5.93 0 002.3-.5zM205.6 23.5h-2.2v-1.8h6.9v1.8h-2.2v7.3h-2.4v-7.3zM211.4 21.7h2.4v9.1h-2.4zM219.6 21.5c3 0 4.5 1.8 4.5 4.7s-1.6 4.7-4.5 4.7-4.6-1.8-4.6-4.7 1.6-4.7 4.6-4.7zm0 7.6c1.5 0 2.1-1.4 2.1-2.9s-.6-2.9-2.1-2.9-2.1 1.3-2.1 2.9.6 2.9 2.1 2.9zM225.4 21.7h3.1l3.1 6.2v-6.2h2.2v9.1h-3l-3.2-6.2.1 6.2h-2.3zM235.3 28.5a5.75 5.75 0 002.5.6c.8 0 1.5-.2 1.5-.9 0-1.7-4.3-.6-4.3-3.9 0-2.2 2.1-2.8 4-2.8a7.55 7.55 0 012.3.3l-.2 1.9a4.48 4.48 0 00-2-.4c-.6 0-1.6.1-1.6.8 0 1.5 4.3.5 4.3 3.8 0 2.4-2 3-4 3a8.42 8.42 0 01-2.7-.4z"/></svg>
