<svg xmlns="http://www.w3.org/2000/svg" viewBox="0 0 190 50">
    <style>
        #bg, #ul { fill: #FF7300 }
        #su { fill: #000 }
        #line { fill: none; stroke: #000; stroke-width: 0.5 }
    </style>
    <g id="bg">
        <path d="M0 36.38V13.16h10.64c4.18.03 7.69 2 7.69 6.08 0 2.86-2.3 4.6-4.8 5.08v.06c2.95.42 5.35 2.38 5.35 5.7 0 6.75-8.23 6.3-8.46 6.3H0zm9.75-4.5c1.54 0 2.68-.96 2.68-2.41 0-1.29-.86-2.51-2.24-2.6H6.15v5.02h3.6v-.01zm-3.6-9.48l3.13-.03c1.66 0 2.74-.68 2.74-2.44 0-1.32-1.07-2.25-2.52-2.25H6.15v4.72z"/>
        <path d="M35.36 27.71h-4.52v-4.5h10.67v12.42c-4.98.77-5.93 1.26-11.28 1.26-6.92-.22-11.12-4.82-11.12-12.09s4.21-11.87 11.13-12.09c5.38-.16 11.04.68 11.13 7.43h-6.15c-.3-2.25-2-2.93-4.03-2.93-4.15 0-5.63 3.83-5.63 7.59 0 4.57 2.18 7.59 6.61 7.59 1.14 0 2.27-.19 3.2-.38v-4.29h-.01z"/>
    </g>
    <g id="su">
        <path d="M50.43 36.98c-3.53 0-6.51-2.7-6.6-6.52h2.15c.06 3.56 2.58 4.59 5.56 4.59 2.49 0 5.34-1.51 5.34-4.46 0-2.32-1.6-3.4-3.47-4.05-3.59-1.26-9.05-2.44-9.05-7.45 0-4.05 3.56-6.26 7.06-6.26 2.92 0 6.72 1.06 7.21 5.53h-2.15c-.06-2.85-2.55-3.59-4.82-3.59-2.3 0-5.15 1.22-5.15 4.05 0 6.59 12.53 3.59 12.53 11.6-.02 5.02-4.16 6.56-8.61 6.56z"/>
        <path d="M63.33 13.31v15c.15 4.21 2.45 6.74 6.11 6.74s5.96-2.54 6.11-6.74v-15h2v15.03c-.06 4.98-2.73 8.64-8.1 8.64-5.37 0-8.04-3.66-8.1-8.64V13.31h1.98z"/>
        <path d="M81.14 34.47c.28.3.41.64.41 1.06s-.14.77-.41 1.07c-.28.3-.62.44-1.01.44s-.73-.15-1.01-.44-.42-.64-.42-1.07c0-.4.14-.75.41-1.05.28-.31.63-.45 1.02-.45.39-.01.73.13 1.01.44zm.22-.23c-.34-.35-.75-.53-1.23-.53-.45 0-.86.16-1.19.5-.36.35-.55.79-.55 1.32 0 .51.17.94.51 1.29s.75.53 1.23.53c.47 0 .88-.17 1.21-.51.35-.37.53-.8.53-1.32-.01-.5-.18-.92-.51-1.28zm-1.02 1.14c-.06.05-.15.07-.27.07h-.19v-.58H80c.13 0 .22.01.29.04.1.04.15.12.15.23 0 .11-.03.2-.1.24zm-.47.44h.11l.11.01c.08.01.13.02.17.03.07.03.12.07.14.15.02.04.03.13.03.24s.01.21.03.27h.48l-.02-.05c-.01-.02-.01-.04-.01-.06v-.24c0-.2-.05-.36-.17-.45-.06-.05-.15-.08-.27-.12.13-.01.24-.06.33-.14.09-.07.13-.2.13-.37 0-.22-.08-.38-.25-.48-.1-.05-.22-.1-.37-.11h-.93v2.01h.51v-.7h-.02z"/>
    </g>
    <path id="line" d="M89.85 0v50"/>
    <g id="ul">
        <path d="M110.38 16.98c0 3.64-2.25 5.27-5.57 5.27-3.31 0-5.57-1.64-5.57-5.27V8.74h3.38v7.65c0 1.75.45 3.23 2.18 3.23 1.73 0 2.18-1.48 2.18-3.23V8.74h3.38v8.24z"/>
        <path d="M111.94 12.1h2.98v1.83h.04c.66-1.43 1.97-2.05 3.46-2.05 2.59 0 3.62 1.9 3.62 3.96v6.18h-3.27v-4.8c0-1.86-.62-2.49-1.51-2.49-1.34 0-2.04.97-2.04 3.11v4.19h-3.27c-.01 0-.01-9.93-.01-9.93z"/>
        <path d="M127.27 10.49H124V7.98h3.27v2.51zm-3.28 1.61h3.27v9.92h-3.27V12.1z"/>
        <path d="M128.39 12.1h3.52l1.96 7.06h.04l1.98-7.06h3.25l-3.52 9.92h-3.73l-3.5-9.92z"/>
        <path d="M142.74 18.07c.18 1.37 1.18 1.9 2.79 1.9.89 0 1.91-.21 2.89-.76v2.42c-1.05.43-2.25.62-3.48.62-3.13 0-5.51-1.92-5.51-5.2s2.13-5.18 5.07-5.18c3.52 0 4.78 2.61 4.78 5.56v.62h-6.55v.02zm3.61-1.95c0-1.14-.51-2.07-1.82-2.07-1.18 0-1.75.93-1.82 2.07h3.64z"/>
        <path d="M157.31 14.85c-.36-.12-.73-.12-1.11-.12-1.53 0-2.38 1.16-2.38 3.11v4.19h-3.27v-9.92h2.98v1.83h.04c.57-1.26 1.38-2.05 2.8-2.05.38 0 .78.05 1.11.12l-.17 2.84z"/>
        <path d="M157.98 19.28c.77.34 1.89.69 3.07.69.68 0 1.32-.12 1.32-.8 0-1.67-4.66-.5-4.66-4.07 0-2.28 2.14-3.21 4.04-3.21 1.13 0 2.27.14 3.33.57l-.25 2.38c-.69-.43-1.73-.67-2.55-.67-.71 0-1.51.14-1.51.69 0 1.54 4.88.33 4.88 4.09 0 2.64-2.27 3.31-4.41 3.31-1.47 0-2.48-.15-3.43-.48l.17-2.5z"/>
        <path d="M170.46 10.49h-3.27V7.98h3.27v2.51zm-3.28 1.61h3.27v9.92h-3.27V12.1z"/>
        <path d="M171.58 12.1h1.93V9.87l3.22-1.05v3.28h2.29v2.4h-2.29v3.66c0 1.19.27 1.81 1.31 1.81.32 0 .68-.07 1-.14l.11 2.23c-.62.07-1.24.19-2.05.19-2.93 0-3.64-1.35-3.64-3.71V14.5h-1.87v-2.4h-.01z"/>
        <path d="M180.06 23.41c.43.15.84.21 1.29.21.8 0 1.41-.5 1.66-1.37l-3.84-10.15h3.53l2.04 6.47h.04l1.95-6.47H190l-3.48 9.23c-.93 2.49-1.64 4.9-4.64 4.9-.69 0-1.36-.07-2.04-.23l.22-2.59z"/>
        <path d="M99.43 26.71h3.38v10.66h5.24v2.62h-8.62V26.71z"/>
        <path d="M112.57 28.46h-3.27v-2.52h3.27v2.52zm-3.27 1.61h3.27v9.92h-3.27v-9.92z"/>
        <path d="M114.46 25.72h3.29v5.63h.04c.84-1.1 1.95-1.5 3.25-1.5 2.62 0 4.05 2.61 4.05 5 0 2.93-1.51 5.37-4.32 5.37-1.51 0-2.84-.9-3.25-2h-.04v1.77h-3.02V25.72zm5.29 6.75c-1.2 0-2 1.1-2 2.59 0 1.45.91 2.54 2 2.54 1.24 0 1.98-1.09 1.98-2.66 0-1.32-.71-2.47-1.98-2.47z"/>
        <path d="M133 32.82c-.36-.12-.73-.12-1.11-.12-1.53 0-2.38 1.16-2.38 3.11V40h-3.27v-9.92h2.98v1.83h.04c.57-1.26 1.38-2.05 2.8-2.05.38 0 .78.05 1.11.12l-.17 2.84z"/>
        <path d="M140.05 39.99c-.02-.53-.07-1.05-.07-1.56h-.04c-.75 1.24-1.66 1.79-3 1.79-1.87 0-3.55-.97-3.55-3.12 0-3.02 3.15-3.38 4.89-3.38.53 0 1.11.06 1.53.14-.02-1.35-.98-1.71-2.16-1.71-1.05 0-2.11.21-3.02.74l-.05-2.33c1.16-.5 2.38-.71 3.79-.71 2.42 0 4.52 1.08 4.52 4.11v3.69c0 .78.04 1.56.18 2.35h-3.02zm-2.25-2.05c1.24 0 2.02-1.18 2.02-2.34-.41-.02-.89-.05-1.38-.05-1.11 0-1.98.36-1.98 1.31 0 .68.57 1.08 1.34 1.08z"/>
        <path d="M151.28 32.82c-.36-.12-.73-.12-1.11-.12-1.53 0-2.38 1.16-2.38 3.11V40h-3.27v-9.92h2.98v1.83h.04c.57-1.26 1.38-2.05 2.8-2.05.38 0 .78.05 1.11.12l-.17 2.84z"/>
        <path d="M155.78 28.46h-3.27v-2.52h3.27v2.52zm-3.27 1.61h3.27v9.92h-3.27v-9.92z"/>
        <path d="M160.6 36.04c.18 1.37 1.18 1.9 2.79 1.9.89 0 1.91-.21 2.89-.76v2.42c-1.05.43-2.25.62-3.48.62-3.13 0-5.51-1.92-5.51-5.2s2.13-5.18 5.07-5.18c3.52 0 4.78 2.61 4.78 5.56v.63c.01.01-6.54.01-6.54.01zm3.61-1.95c0-1.14-.51-2.07-1.82-2.07-1.18 0-1.75.93-1.82 2.07h3.64z"/>
        <path d="M168.22 37.25c.77.34 1.89.69 3.07.69.68 0 1.32-.12 1.32-.8 0-1.67-4.66-.5-4.66-4.07 0-2.28 2.14-3.21 4.04-3.21 1.13 0 2.27.14 3.33.57l-.25 2.38c-.69-.43-1.73-.67-2.55-.67-.71 0-1.51.14-1.51.69 0 1.54 4.88.33 4.88 4.09 0 2.64-2.27 3.31-4.41 3.31-1.47 0-2.48-.15-3.43-.48l.17-2.5z"/>
    </g>
</svg>
